<svg width="1280" height="820" viewBox="0 0 1280 820" fill="none" xmlns="http://www.w3.org/2000/svg">
<g filter="url(#filter0_d_47_2411)">
<rect x="10" y="8" width="1260" height="800" fill="#1E1E1E"/>
</g>
<ellipse cx="1189.54" cy="90.0513" rx="20.5435" ry="24.6154" fill="#4F4F4F"/>
<rect x="1186.11" y="84.5812" width="6.84781" height="21.8803" rx="3.42391" fill="#1E1E1E"/>
<rect x="1186.11" y="73.641" width="6.84781" height="8.20511" rx="3.42391" fill="#1E1E1E"/>
<rect x="82.4023" y="285.423" width="1110.06" height="341.564" stroke="#4F4F4F" stroke-dasharray="1 1"/>
<path d="M81.9023 473.641H1192.96" stroke="#4F4F4F" stroke-dasharray="2 2"/>
<path d="M81.9023 510.564H1192.96" stroke="#4F4F4F" stroke-dasharray="2 2"/>
<path d="M81.9023 547.487H1192.96" stroke="#4F4F4F" stroke-dasharray="2 2"/>
<path d="M81.9023 584.41H1192.96" stroke="#4F4F4F" stroke-dasharray="2 2"/>
<path d="M83.6143 325.949H1191.25" stroke="#4F4F4F" stroke-dasharray="2 2"/>
<path d="M83.6143 362.872H1191.25" stroke="#4F4F4F" stroke-dasharray="2 2"/>
<path d="M83.6143 399.795H1191.25" stroke="#4F4F4F" stroke-dasharray="2 2"/>
<path d="M81.9023 436.718H1192.96" stroke="#4F4F4F" stroke-dasharray="2 2"/>
<path d="M212.095 284.923L212.095 627.921" stroke="#4F4F4F" stroke-dasharray="2 2"/>
<path d="M353.388 284.923L353.388 627.921" stroke="#4F4F4F" stroke-dasharray="2 2"/>
<path d="M494.685 284.923L494.685 627.921" stroke="#4F4F4F" stroke-dasharray="2 2"/>
<path d="M635.975 284.923L635.975 627.921" stroke="#4F4F4F" stroke-dasharray="2 2"/>
<path d="M777.271 284.923L777.271 627.921" stroke="#4F4F4F" stroke-dasharray="2 2"/>
<path d="M918.574 284.923L918.574 627.921" stroke="#4F4F4F" stroke-dasharray="2 2"/>
<path d="M1059.87 284.923L1059.87 627.921" stroke="#4F4F4F" stroke-dasharray="2 2"/>
<path d="M84.881 636.096V642.641H84.0884V636.927H84.0501L82.4521 637.988V637.182L84.0884 636.096H84.881Z" fill="white"/>
<path d="M212.688 642.641V642.066L214.849 639.701C215.102 639.424 215.311 639.183 215.475 638.978C215.639 638.772 215.761 638.578 215.84 638.397C215.921 638.213 215.961 638.022 215.961 637.821C215.961 637.591 215.906 637.392 215.795 637.224C215.686 637.055 215.537 636.925 215.347 636.834C215.158 636.742 214.945 636.696 214.708 636.696C214.457 636.696 214.237 636.749 214.05 636.853C213.864 636.955 213.721 637.099 213.618 637.284C213.518 637.47 213.468 637.687 213.468 637.936H212.714C212.714 637.553 212.802 637.216 212.979 636.927C213.156 636.637 213.397 636.411 213.701 636.249C214.008 636.087 214.352 636.006 214.734 636.006C215.117 636.006 215.457 636.087 215.753 636.249C216.049 636.411 216.282 636.629 216.45 636.904C216.618 637.179 216.703 637.485 216.703 637.821C216.703 638.062 216.659 638.298 216.571 638.528C216.486 638.756 216.337 639.01 216.124 639.292C215.913 639.571 215.62 639.912 215.245 640.314L213.775 641.887V641.938H216.818V642.641H212.688Z" fill="white"/>
<path d="M356.993 640.679C356.571 640.679 356.195 640.607 355.865 640.462C355.536 640.317 355.275 640.116 355.081 639.858C354.89 639.598 354.785 639.296 354.768 638.953H355.574C355.591 639.164 355.663 639.346 355.791 639.5C355.919 639.651 356.086 639.768 356.293 639.851C356.499 639.935 356.729 639.976 356.98 639.976C357.261 639.976 357.51 639.927 357.728 639.829C357.945 639.731 358.116 639.595 358.239 639.42C358.363 639.245 358.425 639.043 358.425 638.813C358.425 638.572 358.365 638.36 358.246 638.177C358.126 637.991 357.952 637.846 357.721 637.742C357.491 637.638 357.21 637.585 356.878 637.585H356.354V636.882H356.878C357.138 636.882 357.366 636.835 357.562 636.742C357.76 636.648 357.914 636.516 358.025 636.345C358.138 636.175 358.194 635.975 358.194 635.745C358.194 635.523 358.145 635.33 358.047 635.166C357.949 635.002 357.811 634.874 357.632 634.783C357.455 634.691 357.246 634.645 357.006 634.645C356.78 634.645 356.567 634.687 356.366 634.77C356.168 634.851 356.006 634.969 355.881 635.125C355.755 635.278 355.687 635.463 355.676 635.681H354.909C354.922 635.338 355.025 635.037 355.219 634.779C355.413 634.519 355.666 634.317 355.98 634.172C356.295 634.027 356.641 633.955 357.018 633.955C357.423 633.955 357.77 634.037 358.06 634.201C358.35 634.363 358.573 634.577 358.728 634.843C358.884 635.11 358.961 635.397 358.961 635.706C358.961 636.075 358.865 636.389 358.671 636.649C358.479 636.909 358.218 637.089 357.888 637.189V637.24C358.301 637.308 358.624 637.484 358.856 637.768C359.088 638.049 359.204 638.397 359.204 638.813C359.204 639.169 359.107 639.488 358.914 639.772C358.722 640.053 358.46 640.274 358.127 640.436C357.795 640.598 357.417 640.679 356.993 640.679Z" fill="white"/>
<path d="M495.009 641.299V640.647L497.885 636.096H498.358V637.105H498.038L495.865 640.544V640.596H499.739V641.299H495.009ZM498.089 642.641V641.101V640.797V636.096H498.844V642.641H498.089Z" fill="white"/>
<path d="M635.875 642.73C635.5 642.73 635.163 642.656 634.862 642.507C634.562 642.358 634.321 642.153 634.14 641.893C633.959 641.633 633.86 641.337 633.843 641.005H634.61C634.64 641.301 634.774 641.546 635.012 641.74C635.253 641.931 635.541 642.027 635.875 642.027C636.144 642.027 636.382 641.964 636.591 641.839C636.802 641.713 636.967 641.54 637.087 641.321C637.208 641.099 637.269 640.849 637.269 640.57C637.269 640.284 637.206 640.03 637.08 639.806C636.957 639.58 636.786 639.402 636.569 639.272C636.352 639.142 636.103 639.076 635.824 639.074C635.624 639.072 635.418 639.103 635.207 639.167C634.996 639.229 634.823 639.309 634.686 639.407L633.945 639.317L634.341 636.096H637.742V636.799H635.006L634.776 638.729H634.814C634.949 638.623 635.117 638.534 635.319 638.464C635.522 638.393 635.733 638.358 635.952 638.358C636.353 638.358 636.71 638.454 637.023 638.646C637.338 638.836 637.585 639.096 637.764 639.426C637.945 639.756 638.036 640.133 638.036 640.557C638.036 640.975 637.942 641.348 637.755 641.676C637.569 642.002 637.314 642.26 636.988 642.449C636.662 642.637 636.291 642.73 635.875 642.73Z" fill="white"/>
<path d="M779.808 642.73C779.539 642.726 779.271 642.675 779.002 642.577C778.734 642.479 778.489 642.314 778.267 642.082C778.046 641.847 777.868 641.531 777.734 641.132C777.599 640.732 777.532 640.229 777.532 639.624C777.532 639.044 777.587 638.531 777.695 638.083C777.804 637.634 777.962 637.256 778.168 636.949C778.375 636.64 778.624 636.406 778.916 636.246C779.21 636.086 779.542 636.006 779.91 636.006C780.277 636.006 780.603 636.08 780.888 636.227C781.176 636.371 781.41 636.574 781.591 636.834C781.772 637.094 781.89 637.393 781.943 637.732H781.163C781.091 637.438 780.95 637.194 780.741 637C780.532 636.806 780.255 636.709 779.91 636.709C779.403 636.709 779.004 636.93 778.712 637.371C778.422 637.812 778.276 638.431 778.274 639.228H778.325C778.444 639.047 778.586 638.892 778.75 638.764C778.916 638.634 779.099 638.534 779.3 638.464C779.5 638.393 779.712 638.358 779.936 638.358C780.311 638.358 780.654 638.452 780.965 638.64C781.276 638.825 781.525 639.082 781.713 639.41C781.9 639.736 781.994 640.11 781.994 640.532C781.994 640.936 781.903 641.307 781.722 641.644C781.541 641.978 781.287 642.245 780.958 642.443C780.632 642.639 780.249 642.735 779.808 642.73ZM779.808 642.027C780.076 642.027 780.317 641.96 780.53 641.826C780.745 641.692 780.915 641.512 781.038 641.286C781.164 641.06 781.227 640.809 781.227 640.532C781.227 640.261 781.166 640.015 781.045 639.793C780.925 639.57 780.76 639.392 780.549 639.26C780.341 639.127 780.102 639.061 779.833 639.061C779.631 639.061 779.442 639.102 779.268 639.183C779.093 639.262 778.94 639.37 778.808 639.509C778.678 639.647 778.575 639.806 778.501 639.985C778.426 640.162 778.389 640.348 778.389 640.544C778.389 640.804 778.45 641.047 778.571 641.273C778.695 641.499 778.863 641.681 779.076 641.82C779.291 641.958 779.535 642.027 779.808 642.027Z" fill="white"/>
<path d="M919.931 642.641L922.858 636.85V636.799H919.483V636.096H923.677V636.837L920.762 642.641H919.931Z" fill="white"/>
<path d="M1062.2 642.73C1061.76 642.73 1061.38 642.653 1061.04 642.497C1060.71 642.339 1060.44 642.123 1060.26 641.848C1060.07 641.571 1059.98 641.256 1059.98 640.902C1059.98 640.625 1060.03 640.37 1060.14 640.135C1060.25 639.899 1060.4 639.702 1060.6 639.544C1060.79 639.384 1061.01 639.283 1061.25 639.24V639.202C1060.93 639.121 1060.68 638.945 1060.5 638.675C1060.31 638.402 1060.22 638.092 1060.22 637.745C1060.22 637.412 1060.3 637.115 1060.47 636.853C1060.65 636.591 1060.88 636.384 1061.18 636.233C1061.48 636.082 1061.82 636.006 1062.2 636.006C1062.58 636.006 1062.92 636.082 1063.22 636.233C1063.52 636.384 1063.75 636.591 1063.92 636.853C1064.1 637.115 1064.18 637.412 1064.19 637.745C1064.18 638.092 1064.09 638.402 1063.9 638.675C1063.72 638.945 1063.47 639.121 1063.16 639.202V639.24C1063.4 639.283 1063.61 639.384 1063.8 639.544C1063.99 639.702 1064.14 639.899 1064.26 640.135C1064.37 640.37 1064.43 640.625 1064.43 640.902C1064.43 641.256 1064.33 641.571 1064.14 641.848C1063.95 642.123 1063.69 642.339 1063.36 642.497C1063.03 642.653 1062.64 642.73 1062.2 642.73ZM1062.2 642.027C1062.5 642.027 1062.76 641.979 1062.97 641.884C1063.19 641.788 1063.35 641.652 1063.47 641.478C1063.59 641.303 1063.65 641.098 1063.65 640.864C1063.65 640.617 1063.58 640.398 1063.46 640.209C1063.33 640.019 1063.16 639.87 1062.94 639.761C1062.73 639.653 1062.48 639.598 1062.2 639.598C1061.92 639.598 1061.68 639.653 1061.46 639.761C1061.24 639.87 1061.07 640.019 1060.94 640.209C1060.82 640.398 1060.76 640.617 1060.76 640.864C1060.76 641.098 1060.81 641.303 1060.93 641.478C1061.05 641.652 1061.21 641.788 1061.43 641.884C1061.65 641.979 1061.91 642.027 1062.2 642.027ZM1062.2 638.921C1062.44 638.921 1062.65 638.874 1062.83 638.78C1063.01 638.686 1063.15 638.555 1063.26 638.387C1063.36 638.219 1063.42 638.022 1063.42 637.796C1063.42 637.574 1063.36 637.381 1063.26 637.217C1063.16 637.051 1063.02 636.923 1062.84 636.834C1062.66 636.742 1062.44 636.696 1062.2 636.696C1061.96 636.696 1061.74 636.742 1061.56 636.834C1061.38 636.923 1061.24 637.051 1061.14 637.217C1061.04 637.381 1060.99 637.574 1060.99 637.796C1060.99 638.022 1061.04 638.219 1061.14 638.387C1061.24 638.555 1061.39 638.686 1061.57 638.78C1061.75 638.874 1061.97 638.921 1062.2 638.921Z" fill="white"/>
<path d="M1195.72 636.006C1195.99 636.008 1196.26 636.059 1196.53 636.159C1196.8 636.26 1197.04 636.426 1197.26 636.658C1197.49 636.888 1197.66 637.202 1197.8 637.601C1197.93 637.999 1198 638.499 1198 639.1C1198 639.681 1197.94 640.198 1197.83 640.65C1197.72 641.099 1197.57 641.479 1197.36 641.788C1197.16 642.097 1196.91 642.331 1196.61 642.491C1196.32 642.651 1195.99 642.73 1195.62 642.73C1195.25 642.73 1194.93 642.658 1194.64 642.513C1194.35 642.366 1194.12 642.163 1193.94 641.903C1193.76 641.641 1193.64 641.337 1193.59 640.992H1194.37C1194.44 641.292 1194.58 641.54 1194.79 641.737C1195 641.93 1195.28 642.027 1195.62 642.027C1196.13 642.027 1196.52 641.807 1196.82 641.366C1197.11 640.925 1197.26 640.302 1197.26 639.496H1197.21C1197.09 639.675 1196.95 639.83 1196.78 639.96C1196.62 640.089 1196.43 640.19 1196.23 640.26C1196.03 640.33 1195.82 640.365 1195.6 640.365C1195.22 640.365 1194.88 640.273 1194.56 640.087C1194.25 639.9 1194 639.643 1193.82 639.317C1193.63 638.989 1193.54 638.614 1193.54 638.192C1193.54 637.792 1193.63 637.425 1193.81 637.093C1193.99 636.758 1194.24 636.492 1194.57 636.294C1194.89 636.096 1195.28 636 1195.72 636.006ZM1195.72 636.709C1195.45 636.709 1195.21 636.776 1195 636.911C1194.78 637.043 1194.62 637.222 1194.49 637.447C1194.37 637.671 1194.3 637.919 1194.3 638.192C1194.3 638.465 1194.36 638.713 1194.48 638.937C1194.6 639.158 1194.77 639.335 1194.98 639.467C1195.19 639.597 1195.43 639.662 1195.7 639.662C1195.9 639.662 1196.09 639.623 1196.26 639.544C1196.44 639.463 1196.59 639.353 1196.72 639.215C1196.85 639.074 1196.96 638.915 1197.03 638.739C1197.11 638.56 1197.14 638.373 1197.14 638.179C1197.14 637.924 1197.08 637.684 1196.96 637.46C1196.84 637.237 1196.67 637.055 1196.45 636.917C1196.24 636.778 1196 636.709 1195.72 636.709Z" fill="white"/>
<path d="M68.8178 620.6C68.3362 620.6 67.9261 620.469 67.5873 620.207C67.2485 619.943 66.9896 619.561 66.8107 619.06C66.6317 618.557 66.5422 617.95 66.5422 617.238C66.5422 616.531 66.6317 615.927 66.8107 615.426C66.9918 614.923 67.2517 614.54 67.5905 614.275C67.9314 614.009 68.3405 613.876 68.8178 613.876C69.295 613.876 69.7031 614.009 70.0418 614.275C70.3828 614.54 70.6427 614.923 70.8217 615.426C71.0028 615.927 71.0933 616.531 71.0933 617.238C71.0933 617.95 71.0038 618.557 70.8249 619.06C70.6459 619.561 70.387 619.943 70.0482 620.207C69.7095 620.469 69.2993 620.6 68.8178 620.6ZM68.8178 619.897C69.295 619.897 69.6658 619.667 69.93 619.207C70.1942 618.747 70.3263 618.09 70.3263 617.238C70.3263 616.671 70.2656 616.189 70.1441 615.79C70.0248 615.392 69.8522 615.088 69.6264 614.879C69.4026 614.671 69.1331 614.566 68.8178 614.566C68.3448 614.566 67.9751 614.8 67.7087 615.266C67.4424 615.731 67.3092 616.388 67.3092 617.238C67.3092 617.805 67.3689 618.286 67.4882 618.683C67.6075 619.079 67.7791 619.381 68.0028 619.587C68.2286 619.794 68.5003 619.897 68.8178 619.897Z" fill="white"/>
<path d="M72.1378 566.352V572.897H71.3452V567.183H71.3068L69.7088 568.244V567.439L71.3452 566.352H72.1378Z" fill="white"/>
<path d="M68.571 535.974V535.399L70.7315 533.034C70.9851 532.757 71.1939 532.516 71.358 532.312C71.522 532.105 71.6435 531.911 71.7223 531.73C71.8033 531.547 71.8438 531.355 71.8438 531.155C71.8438 530.925 71.7884 530.725 71.6776 530.557C71.5689 530.389 71.4197 530.259 71.2301 530.167C71.0405 530.076 70.8274 530.03 70.5909 530.03C70.3395 530.03 70.12 530.082 69.9325 530.186C69.7472 530.289 69.6033 530.432 69.5011 530.618C69.4009 530.803 69.3509 531.021 69.3509 531.27H68.5966C68.5966 530.886 68.685 530.55 68.8619 530.26C69.0387 529.97 69.2795 529.744 69.5842 529.582C69.891 529.42 70.2351 529.339 70.6165 529.339C71 529.339 71.3398 529.42 71.636 529.582C71.9322 529.744 72.1644 529.963 72.3327 530.238C72.5011 530.512 72.5852 530.818 72.5852 531.155C72.5852 531.396 72.5416 531.631 72.4542 531.861C72.369 532.089 72.2198 532.344 72.0068 532.625C71.7958 532.904 71.5028 533.245 71.1278 533.648L69.6577 535.22V535.271H72.7003V535.974H68.571Z" fill="white"/>
<path d="M70.5014 499.141C70.0796 499.141 69.7035 499.068 69.3732 498.923C69.0451 498.779 68.7841 498.577 68.5902 498.319C68.3984 498.059 68.294 497.758 68.277 497.415H69.0824C69.0994 497.626 69.1719 497.808 69.2997 497.961C69.4276 498.113 69.5948 498.23 69.8015 498.313C70.0082 498.396 70.2372 498.438 70.4886 498.438C70.7699 498.438 71.0192 498.389 71.2365 498.291C71.4538 498.193 71.6243 498.056 71.7479 497.882C71.8715 497.707 71.9332 497.504 71.9332 497.274C71.9332 497.034 71.8736 496.822 71.7543 496.638C71.6349 496.453 71.4602 496.308 71.2301 496.204C71 496.099 70.7188 496.047 70.3864 496.047H69.8622V495.344H70.3864C70.6463 495.344 70.8743 495.297 71.0703 495.203C71.2685 495.11 71.4229 494.977 71.5337 494.807C71.6467 494.636 71.7031 494.436 71.7031 494.206C71.7031 493.985 71.6541 493.792 71.5561 493.628C71.4581 493.464 71.3196 493.336 71.1406 493.244C70.9638 493.152 70.755 493.107 70.5142 493.107C70.2884 493.107 70.0753 493.148 69.875 493.231C69.6769 493.312 69.5149 493.431 69.3892 493.586C69.2635 493.739 69.1953 493.925 69.1847 494.142H68.4176C68.4304 493.799 68.5337 493.499 68.7276 493.241C68.9215 492.981 69.1751 492.779 69.4883 492.634C69.8036 492.489 70.1499 492.416 70.527 492.416C70.9318 492.416 71.2791 492.498 71.5689 492.662C71.8587 492.824 72.0813 493.038 72.2369 493.305C72.3924 493.571 72.4702 493.859 72.4702 494.168C72.4702 494.536 72.3732 494.851 72.1793 495.111C71.9876 495.371 71.7266 495.551 71.3963 495.651V495.702C71.8097 495.77 72.1325 495.946 72.3647 496.229C72.597 496.51 72.7131 496.859 72.7131 497.274C72.7131 497.63 72.6161 497.95 72.4222 498.233C72.2305 498.514 71.9684 498.736 71.636 498.898C71.3036 499.06 70.9254 499.141 70.5014 499.141Z" fill="white"/>
<path d="M68.0924 462.837V462.185L70.9688 457.634H71.4419V458.644H71.1223L68.949 462.083V462.134H72.8225V462.837H68.0924ZM71.1734 464.179V462.639V462.335V457.634H71.9277V464.179H71.1734Z" fill="white"/>
<path d="M70.5901 427.346C70.2151 427.346 69.8774 427.271 69.577 427.122C69.2765 426.973 69.0358 426.768 68.8547 426.508C68.6736 426.249 68.5745 425.952 68.5574 425.62H69.3245C69.3543 425.916 69.4886 426.161 69.7272 426.355C69.968 426.547 70.2556 426.643 70.5901 426.643C70.8586 426.643 71.0972 426.58 71.306 426.454C71.517 426.328 71.6821 426.156 71.8014 425.936C71.9229 425.715 71.9836 425.464 71.9836 425.185C71.9836 424.9 71.9207 424.645 71.795 424.421C71.6714 424.196 71.501 424.018 71.2837 423.888C71.0663 423.758 70.8181 423.692 70.539 423.69C70.3387 423.687 70.1331 423.718 69.9221 423.782C69.7112 423.844 69.5376 423.924 69.4012 424.022L68.6597 423.932L69.056 420.711H72.4566V421.414H69.7208L69.4907 423.344H69.529C69.6633 423.238 69.8316 423.149 70.034 423.079C70.2364 423.009 70.4474 422.974 70.6668 422.974C71.0674 422.974 71.4243 423.07 71.7375 423.261C72.0528 423.451 72.3 423.711 72.479 424.041C72.6601 424.371 72.7506 424.749 72.7506 425.173C72.7506 425.59 72.6569 425.963 72.4694 426.291C72.284 426.617 72.0283 426.875 71.7023 427.065C71.3763 427.252 71.0056 427.346 70.5901 427.346Z" fill="white"/>
<path d="M70.5773 388.372C70.3089 388.367 70.0404 388.316 69.7719 388.218C69.5035 388.12 69.2584 387.955 69.0368 387.723C68.8153 387.488 68.6373 387.172 68.5031 386.774C68.3689 386.373 68.3018 385.87 68.3018 385.265C68.3018 384.686 68.3561 384.172 68.4648 383.725C68.5734 383.275 68.7311 382.897 68.9378 382.59C69.1444 382.281 69.3937 382.047 69.6856 381.887C69.9797 381.727 70.311 381.647 70.6796 381.647C71.0461 381.647 71.3721 381.721 71.6576 381.868C71.9452 382.013 72.1796 382.215 72.3607 382.475C72.5418 382.735 72.659 383.034 72.7123 383.373H71.9324C71.86 383.079 71.7194 382.835 71.5106 382.641C71.3018 382.447 71.0248 382.35 70.6796 382.35C70.1725 382.35 69.773 382.571 69.4811 383.012C69.1913 383.453 69.0454 384.072 69.0432 384.869H69.0944C69.2137 384.688 69.3554 384.533 69.5194 384.405C69.6856 384.275 69.8689 384.175 70.0692 384.105C70.2694 384.035 70.4815 383.999 70.7052 383.999C71.0802 383.999 71.4232 384.093 71.7343 384.281C72.0454 384.466 72.2947 384.723 72.4822 385.051C72.6697 385.377 72.7634 385.751 72.7634 386.173C72.7634 386.578 72.6729 386.948 72.4917 387.285C72.3106 387.619 72.056 387.886 71.7279 388.084C71.4019 388.28 71.0184 388.376 70.5773 388.372ZM70.5773 387.668C70.8458 387.668 71.0866 387.601 71.2996 387.467C71.5148 387.333 71.6842 387.153 71.8078 386.927C71.9335 386.701 71.9964 386.45 71.9964 386.173C71.9964 385.902 71.9356 385.656 71.8142 385.434C71.6949 385.211 71.5297 385.033 71.3188 384.901C71.11 384.769 70.8714 384.703 70.6029 384.703C70.4005 384.703 70.2119 384.743 70.0372 384.824C69.8625 384.903 69.7091 385.012 69.577 385.15C69.447 385.288 69.3447 385.447 69.2702 385.626C69.1956 385.803 69.1583 385.989 69.1583 386.186C69.1583 386.445 69.219 386.688 69.3405 386.914C69.464 387.14 69.6324 387.322 69.8454 387.461C70.0606 387.599 70.3046 387.668 70.5773 387.668Z" fill="white"/>
<path d="M69.0832 351.359L72.0107 345.568V345.517H68.6357V344.814H72.8289V345.555L69.9142 351.359H69.0832Z" fill="white"/>
<path d="M70.5709 314.525C70.132 314.525 69.7442 314.448 69.4076 314.292C69.0731 314.134 68.8121 313.918 68.6246 313.643C68.4371 313.366 68.3444 313.051 68.3465 312.697C68.3444 312.42 68.3987 312.165 68.5095 311.93C68.6203 311.694 68.7716 311.497 68.9633 311.339C69.1572 311.179 69.3735 311.078 69.6121 311.035V310.997C69.2989 310.916 69.0496 310.74 68.8643 310.47C68.6789 310.197 68.5873 309.887 68.5894 309.54C68.5873 309.207 68.6714 308.91 68.8419 308.648C69.0123 308.386 69.2467 308.179 69.545 308.028C69.8454 307.877 70.1874 307.801 70.5709 307.801C70.9502 307.801 71.289 307.877 71.5873 308.028C71.8856 308.179 72.1199 308.386 72.2904 308.648C72.463 308.91 72.5503 309.207 72.5525 309.54C72.5503 309.887 72.4555 310.197 72.268 310.47C72.0827 310.74 71.8366 310.916 71.5297 310.997V311.035C71.7663 311.078 71.9793 311.179 72.169 311.339C72.3586 311.497 72.5099 311.694 72.6228 311.93C72.7357 312.165 72.7932 312.42 72.7954 312.697C72.7932 313.051 72.6974 313.366 72.5077 313.643C72.3202 313.918 72.0592 314.134 71.7247 314.292C71.3923 314.448 71.0077 314.525 70.5709 314.525ZM70.5709 313.822C70.8671 313.822 71.1228 313.774 71.338 313.678C71.5532 313.583 71.7194 313.447 71.8366 313.273C71.9538 313.098 72.0134 312.893 72.0155 312.659C72.0134 312.412 71.9495 312.193 71.8238 312.004C71.6981 311.814 71.5265 311.665 71.3092 311.556C71.094 311.448 70.8479 311.393 70.5709 311.393C70.2918 311.393 70.0425 311.448 69.8231 311.556C69.6057 311.665 69.4342 311.814 69.3085 312.004C69.1849 312.193 69.1242 312.412 69.1263 312.659C69.1242 312.893 69.1807 313.098 69.2957 313.273C69.4129 313.447 69.5802 313.583 69.7975 313.678C70.0148 313.774 70.2726 313.822 70.5709 313.822ZM70.5709 310.716C70.8053 310.716 71.0131 310.669 71.1942 310.575C71.3774 310.481 71.5212 310.35 71.6256 310.182C71.73 310.014 71.7833 309.817 71.7854 309.591C71.7833 309.369 71.7311 309.176 71.6288 309.012C71.5265 308.846 71.3849 308.718 71.2038 308.629C71.0226 308.537 70.8117 308.491 70.5709 308.491C70.3259 308.491 70.1118 308.537 69.9285 308.629C69.7453 308.718 69.6036 308.846 69.5035 309.012C69.4033 309.176 69.3543 309.369 69.3565 309.591C69.3543 309.817 69.4044 310.014 69.5067 310.182C69.6111 310.35 69.7549 310.481 69.9381 310.575C70.1214 310.669 70.3323 310.716 70.5709 310.716Z" fill="white"/>
<path d="M70.4878 268.827C70.7563 268.829 71.0248 268.88 71.2932 268.98C71.5617 269.08 71.8067 269.246 72.0283 269.479C72.2499 269.709 72.4278 270.023 72.5621 270.421C72.6963 270.82 72.7634 271.32 72.7634 271.92C72.7634 272.502 72.708 273.019 72.5972 273.47C72.4886 273.92 72.3309 274.299 72.1242 274.608C71.9197 274.917 71.6704 275.152 71.3763 275.311C71.0844 275.471 70.7542 275.551 70.3856 275.551C70.0191 275.551 69.692 275.479 69.4044 275.334C69.1189 275.187 68.8845 274.983 68.7013 274.723C68.5202 274.461 68.404 274.158 68.3529 273.812H69.1327C69.203 274.113 69.3426 274.361 69.5514 274.557C69.7623 274.751 70.0404 274.848 70.3856 274.848C70.8905 274.848 71.289 274.627 71.5809 274.186C71.8749 273.745 72.0219 273.122 72.0219 272.317H71.9708C71.8515 272.496 71.7098 272.65 71.5457 272.78C71.3817 272.91 71.1995 273.01 70.9992 273.081C70.7989 273.151 70.5859 273.186 70.36 273.186C69.985 273.186 69.6409 273.093 69.3277 272.908C69.0166 272.72 68.7673 272.464 68.5798 272.138C68.3944 271.81 68.3018 271.435 68.3018 271.013C68.3018 270.612 68.3913 270.246 68.5702 269.913C68.7513 269.579 69.0049 269.312 69.3309 269.114C69.659 268.916 70.0447 268.82 70.4878 268.827ZM70.4878 269.53C70.2194 269.53 69.9775 269.597 69.7623 269.731C69.5493 269.863 69.3799 270.042 69.2542 270.268C69.1306 270.492 69.0688 270.74 69.0688 271.013C69.0688 271.285 69.1285 271.534 69.2478 271.757C69.3692 271.979 69.5344 272.156 69.7432 272.288C69.9541 272.418 70.1938 272.483 70.4623 272.483C70.6647 272.483 70.8533 272.443 71.028 272.365C71.2027 272.284 71.355 272.174 71.485 272.035C71.6171 271.895 71.7204 271.736 71.795 271.559C71.8696 271.38 71.9069 271.194 71.9069 271C71.9069 270.744 71.8451 270.505 71.7215 270.281C71.6001 270.057 71.4317 269.876 71.2165 269.737C71.0035 269.599 70.7606 269.53 70.4878 269.53Z" fill="white"/>
<path d="M10 215.179H1270" stroke="#4F4F4F" stroke-width="2"/>
<path d="M93.3286 717V706.029H97.0357C97.8964 706.029 98.6 706.184 99.1464 706.495C99.6964 706.802 100.104 707.218 100.368 707.743C100.632 708.268 100.764 708.854 100.764 709.5C100.764 710.146 100.632 710.734 100.368 711.262C100.107 711.791 99.7036 712.212 99.1571 712.527C98.6107 712.837 97.9107 712.993 97.0571 712.993H94.4V711.814H97.0143C97.6036 711.814 98.0768 711.712 98.4339 711.509C98.7911 711.305 99.05 711.03 99.2107 710.684C99.375 710.334 99.4571 709.939 99.4571 709.5C99.4571 709.061 99.375 708.668 99.2107 708.321C99.05 707.975 98.7893 707.704 98.4286 707.507C98.0679 707.307 97.5893 707.207 96.9929 707.207H94.6571V717H93.3286ZM102.733 717V708.771H103.954V710.014H104.04C104.19 709.607 104.462 709.277 104.854 709.023C105.247 708.77 105.69 708.643 106.183 708.643C106.276 708.643 106.392 708.645 106.531 708.648C106.671 708.652 106.776 708.657 106.847 708.664V709.95C106.804 709.939 106.706 709.923 106.553 709.902C106.403 709.877 106.244 709.864 106.076 709.864C105.676 709.864 105.319 709.948 105.004 710.116C104.694 710.28 104.447 710.509 104.265 710.802C104.087 711.091 103.997 711.421 103.997 711.793V717H102.733ZM111.438 717.171C110.696 717.171 110.044 716.995 109.483 716.641C108.926 716.287 108.49 715.793 108.176 715.157C107.865 714.521 107.71 713.779 107.71 712.929C107.71 712.071 107.865 711.323 108.176 710.684C108.49 710.045 108.926 709.548 109.483 709.195C110.044 708.841 110.696 708.664 111.438 708.664C112.181 708.664 112.831 708.841 113.388 709.195C113.949 709.548 114.385 710.045 114.696 710.684C115.01 711.323 115.167 712.071 115.167 712.929C115.167 713.779 115.01 714.521 114.696 715.157C114.385 715.793 113.949 716.287 113.388 716.641C112.831 716.995 112.181 717.171 111.438 717.171ZM111.438 716.036C112.003 716.036 112.467 715.891 112.831 715.602C113.196 715.312 113.465 714.932 113.64 714.461C113.815 713.989 113.903 713.479 113.903 712.929C113.903 712.379 113.815 711.866 113.64 711.391C113.465 710.916 113.196 710.532 112.831 710.239C112.467 709.946 112.003 709.8 111.438 709.8C110.874 709.8 110.41 709.946 110.046 710.239C109.681 710.532 109.412 710.916 109.237 711.391C109.062 711.866 108.974 712.379 108.974 712.929C108.974 713.479 109.062 713.989 109.237 714.461C109.412 714.932 109.681 715.312 110.046 715.602C110.41 715.891 110.874 716.036 111.438 716.036ZM120.204 717.171C119.518 717.171 118.913 716.998 118.388 716.652C117.863 716.302 117.452 715.809 117.156 715.173C116.859 714.534 116.711 713.779 116.711 712.907C116.711 712.043 116.859 711.293 117.156 710.657C117.452 710.021 117.865 709.53 118.393 709.184C118.922 708.837 119.533 708.664 120.225 708.664C120.761 708.664 121.184 708.754 121.495 708.932C121.809 709.107 122.049 709.307 122.213 709.532C122.381 709.754 122.511 709.936 122.604 710.079H122.711V706.029H123.975V717H122.754V715.736H122.604C122.511 715.886 122.379 716.075 122.208 716.304C122.036 716.529 121.792 716.73 121.474 716.909C121.156 717.084 120.733 717.171 120.204 717.171ZM120.375 716.036C120.883 716.036 121.311 715.904 121.661 715.639C122.011 715.371 122.277 715.002 122.459 714.53C122.642 714.055 122.733 713.507 122.733 712.886C122.733 712.271 122.643 711.734 122.465 711.273C122.286 710.809 122.022 710.448 121.672 710.191C121.322 709.93 120.89 709.8 120.375 709.8C119.84 709.8 119.393 709.937 119.036 710.212C118.683 710.484 118.417 710.854 118.238 711.321C118.063 711.786 117.975 712.307 117.975 712.886C117.975 713.471 118.065 714.004 118.243 714.482C118.425 714.957 118.693 715.336 119.047 715.618C119.404 715.896 119.847 716.036 120.375 716.036ZM131.652 713.636V708.771H132.917V717H131.652V715.607H131.567C131.374 716.025 131.074 716.38 130.667 716.673C130.259 716.963 129.745 717.107 129.124 717.107C128.609 717.107 128.152 716.995 127.752 716.77C127.352 716.541 127.038 716.198 126.809 715.741C126.581 715.28 126.467 714.7 126.467 714V708.771H127.731V713.914C127.731 714.514 127.899 714.993 128.234 715.35C128.574 715.707 129.006 715.886 129.531 715.886C129.845 715.886 130.165 715.805 130.49 715.645C130.818 715.484 131.093 715.237 131.315 714.905C131.54 714.573 131.652 714.15 131.652 713.636ZM138.575 717.171C137.804 717.171 137.139 716.989 136.582 716.625C136.025 716.261 135.596 715.759 135.296 715.12C134.996 714.48 134.846 713.75 134.846 712.929C134.846 712.093 135 711.355 135.307 710.716C135.618 710.073 136.05 709.571 136.604 709.211C137.161 708.846 137.811 708.664 138.554 708.664C139.132 708.664 139.654 708.771 140.118 708.986C140.582 709.2 140.963 709.5 141.259 709.886C141.555 710.271 141.739 710.721 141.811 711.236H140.546C140.45 710.861 140.236 710.529 139.904 710.239C139.575 709.946 139.132 709.8 138.575 709.8C138.082 709.8 137.65 709.929 137.279 710.186C136.911 710.439 136.623 710.798 136.416 711.262C136.213 711.723 136.111 712.264 136.111 712.886C136.111 713.521 136.211 714.075 136.411 714.546C136.614 715.018 136.9 715.384 137.268 715.645C137.639 715.905 138.075 716.036 138.575 716.036C138.904 716.036 139.202 715.979 139.47 715.864C139.738 715.75 139.964 715.586 140.15 715.371C140.336 715.157 140.468 714.9 140.546 714.6H141.811C141.739 715.086 141.563 715.523 141.28 715.912C141.002 716.298 140.632 716.605 140.171 716.834C139.714 717.059 139.182 717.171 138.575 717.171ZM147.237 708.771V709.843H142.973V708.771H147.237ZM144.216 706.8H145.48V714.643C145.48 715 145.532 715.268 145.636 715.446C145.743 715.621 145.879 715.739 146.043 715.8C146.211 715.857 146.387 715.886 146.573 715.886C146.712 715.886 146.827 715.879 146.916 715.864C147.005 715.846 147.077 715.832 147.13 715.821L147.387 716.957C147.302 716.989 147.182 717.021 147.029 717.054C146.875 717.089 146.68 717.107 146.445 717.107C146.087 717.107 145.737 717.03 145.395 716.877C145.055 716.723 144.773 716.489 144.548 716.175C144.327 715.861 144.216 715.464 144.216 714.986V706.8ZM157.218 706.029V717H155.889V707.421H155.825L153.146 709.2V707.85L155.889 706.029H157.218Z" fill="white"/>
<path d="M244.329 717V706.029H248.036C248.896 706.029 249.6 706.184 250.146 706.495C250.696 706.802 251.104 707.218 251.368 707.743C251.632 708.268 251.764 708.854 251.764 709.5C251.764 710.146 251.632 710.734 251.368 711.262C251.107 711.791 250.704 712.212 250.157 712.527C249.611 712.837 248.911 712.993 248.057 712.993H245.4V711.814H248.014C248.604 711.814 249.077 711.712 249.434 711.509C249.791 711.305 250.05 711.03 250.211 710.684C250.375 710.334 250.457 709.939 250.457 709.5C250.457 709.061 250.375 708.668 250.211 708.321C250.05 707.975 249.789 707.704 249.429 707.507C249.068 707.307 248.589 707.207 247.993 707.207H245.657V717H244.329ZM253.733 717V708.771H254.954V710.014H255.04C255.19 709.607 255.462 709.277 255.854 709.023C256.247 708.77 256.69 708.643 257.183 708.643C257.276 708.643 257.392 708.645 257.531 708.648C257.671 708.652 257.776 708.657 257.847 708.664V709.95C257.804 709.939 257.706 709.923 257.553 709.902C257.403 709.877 257.244 709.864 257.076 709.864C256.676 709.864 256.319 709.948 256.004 710.116C255.694 710.28 255.447 710.509 255.265 710.802C255.087 711.091 254.997 711.421 254.997 711.793V717H253.733ZM262.438 717.171C261.696 717.171 261.044 716.995 260.483 716.641C259.926 716.287 259.49 715.793 259.176 715.157C258.865 714.521 258.71 713.779 258.71 712.929C258.71 712.071 258.865 711.323 259.176 710.684C259.49 710.045 259.926 709.548 260.483 709.195C261.044 708.841 261.696 708.664 262.438 708.664C263.181 708.664 263.831 708.841 264.388 709.195C264.949 709.548 265.385 710.045 265.696 710.684C266.01 711.323 266.167 712.071 266.167 712.929C266.167 713.779 266.01 714.521 265.696 715.157C265.385 715.793 264.949 716.287 264.388 716.641C263.831 716.995 263.181 717.171 262.438 717.171ZM262.438 716.036C263.003 716.036 263.467 715.891 263.831 715.602C264.196 715.312 264.465 714.932 264.64 714.461C264.815 713.989 264.903 713.479 264.903 712.929C264.903 712.379 264.815 711.866 264.64 711.391C264.465 710.916 264.196 710.532 263.831 710.239C263.467 709.946 263.003 709.8 262.438 709.8C261.874 709.8 261.41 709.946 261.046 710.239C260.681 710.532 260.412 710.916 260.237 711.391C260.062 711.866 259.974 712.379 259.974 712.929C259.974 713.479 260.062 713.989 260.237 714.461C260.412 714.932 260.681 715.312 261.046 715.602C261.41 715.891 261.874 716.036 262.438 716.036ZM271.204 717.171C270.518 717.171 269.913 716.998 269.388 716.652C268.863 716.302 268.452 715.809 268.156 715.173C267.859 714.534 267.711 713.779 267.711 712.907C267.711 712.043 267.859 711.293 268.156 710.657C268.452 710.021 268.865 709.53 269.393 709.184C269.922 708.837 270.533 708.664 271.225 708.664C271.761 708.664 272.184 708.754 272.495 708.932C272.809 709.107 273.049 709.307 273.213 709.532C273.381 709.754 273.511 709.936 273.604 710.079H273.711V706.029H274.975V717H273.754V715.736H273.604C273.511 715.886 273.379 716.075 273.208 716.304C273.036 716.529 272.792 716.73 272.474 716.909C272.156 717.084 271.733 717.171 271.204 717.171ZM271.375 716.036C271.883 716.036 272.311 715.904 272.661 715.639C273.011 715.371 273.277 715.002 273.459 714.53C273.642 714.055 273.733 713.507 273.733 712.886C273.733 712.271 273.643 711.734 273.465 711.273C273.286 710.809 273.022 710.448 272.672 710.191C272.322 709.93 271.89 709.8 271.375 709.8C270.84 709.8 270.393 709.937 270.036 710.212C269.683 710.484 269.417 710.854 269.238 711.321C269.063 711.786 268.975 712.307 268.975 712.886C268.975 713.471 269.065 714.004 269.243 714.482C269.425 714.957 269.693 715.336 270.047 715.618C270.404 715.896 270.847 716.036 271.375 716.036ZM282.652 713.636V708.771H283.917V717H282.652V715.607H282.567C282.374 716.025 282.074 716.38 281.667 716.673C281.259 716.963 280.745 717.107 280.124 717.107C279.609 717.107 279.152 716.995 278.752 716.77C278.352 716.541 278.038 716.198 277.809 715.741C277.581 715.28 277.467 714.7 277.467 714V708.771H278.731V713.914C278.731 714.514 278.899 714.993 279.234 715.35C279.574 715.707 280.006 715.886 280.531 715.886C280.845 715.886 281.165 715.805 281.49 715.645C281.818 715.484 282.093 715.237 282.315 714.905C282.54 714.573 282.652 714.15 282.652 713.636ZM289.575 717.171C288.804 717.171 288.139 716.989 287.582 716.625C287.025 716.261 286.596 715.759 286.296 715.12C285.996 714.48 285.846 713.75 285.846 712.929C285.846 712.093 286 711.355 286.307 710.716C286.618 710.073 287.05 709.571 287.604 709.211C288.161 708.846 288.811 708.664 289.554 708.664C290.132 708.664 290.654 708.771 291.118 708.986C291.582 709.2 291.963 709.5 292.259 709.886C292.555 710.271 292.739 710.721 292.811 711.236H291.546C291.45 710.861 291.236 710.529 290.904 710.239C290.575 709.946 290.132 709.8 289.575 709.8C289.082 709.8 288.65 709.929 288.279 710.186C287.911 710.439 287.623 710.798 287.416 711.262C287.213 711.723 287.111 712.264 287.111 712.886C287.111 713.521 287.211 714.075 287.411 714.546C287.614 715.018 287.9 715.384 288.268 715.645C288.639 715.905 289.075 716.036 289.575 716.036C289.904 716.036 290.202 715.979 290.47 715.864C290.738 715.75 290.964 715.586 291.15 715.371C291.336 715.157 291.468 714.9 291.546 714.6H292.811C292.739 715.086 292.563 715.523 292.28 715.912C292.002 716.298 291.632 716.605 291.171 716.834C290.714 717.059 290.182 717.171 289.575 717.171ZM298.238 708.771V709.843H293.973V708.771H298.238ZM295.216 706.8H296.48V714.643C296.48 715 296.532 715.268 296.636 715.446C296.743 715.621 296.879 715.739 297.043 715.8C297.211 715.857 297.388 715.886 297.573 715.886C297.713 715.886 297.827 715.879 297.916 715.864C298.005 715.846 298.077 715.832 298.13 715.821L298.388 716.957C298.302 716.989 298.182 717.021 298.029 717.054C297.875 717.089 297.68 717.107 297.445 717.107C297.088 717.107 296.738 717.03 296.395 716.877C296.055 716.723 295.773 716.489 295.548 716.175C295.327 715.861 295.216 715.464 295.216 714.986V706.8ZM304.361 717V716.036L307.982 712.071C308.407 711.607 308.757 711.204 309.032 710.861C309.307 710.514 309.511 710.189 309.643 709.886C309.779 709.579 309.846 709.257 309.846 708.921C309.846 708.536 309.754 708.202 309.568 707.92C309.386 707.637 309.136 707.42 308.818 707.266C308.5 707.112 308.143 707.036 307.746 707.036C307.325 707.036 306.957 707.123 306.643 707.298C306.332 707.47 306.091 707.711 305.92 708.021C305.752 708.332 305.668 708.696 305.668 709.114H304.404C304.404 708.471 304.552 707.907 304.848 707.421C305.145 706.936 305.548 706.557 306.059 706.286C306.573 706.014 307.15 705.879 307.789 705.879C308.432 705.879 309.002 706.014 309.498 706.286C309.995 706.557 310.384 706.923 310.666 707.384C310.948 707.845 311.089 708.357 311.089 708.921C311.089 709.325 311.016 709.72 310.87 710.105C310.727 710.487 310.477 710.914 310.12 711.386C309.766 711.854 309.275 712.425 308.646 713.1L306.182 715.736V715.821H311.282V717H304.361Z" fill="white"/>
<path d="M83.6143 475.312C113.28 464.204 181.717 431.282 218.143 388.463C263.676 334.94 340.254 244.051 406.484 325.851C472.714 407.651 526.526 497.53 636.218 506.618C745.911 515.707 733.493 436.937 781.096 436.937C828.699 436.937 832.838 582.359 928.043 582.359C1023.25 582.359 1025.32 325.851 1192.96 325.851" stroke="#2D9CDB" stroke-width="3"/>
<path d="M86.6841 474.903C86.6841 478.822 84.1033 481.82 81.1194 481.82C78.1354 481.82 75.5547 478.822 75.5547 474.903C75.5547 470.985 78.1354 467.987 81.1194 467.987C84.1033 467.987 86.6841 470.985 86.6841 474.903Z" fill="#2D9CDB" stroke="#2D9CDB"/>
<path d="M216.792 399.006C216.792 402.924 214.212 405.922 211.228 405.922C208.244 405.922 205.663 402.924 205.663 399.006C205.663 395.087 208.244 392.09 211.228 392.09C214.212 392.09 216.792 395.087 216.792 399.006Z" fill="#2D9CDB" stroke="#2D9CDB"/>
<path d="M358.885 294.391C358.885 298.309 356.305 301.307 353.321 301.307C350.337 301.307 347.756 298.309 347.756 294.391C347.756 290.472 350.337 287.474 353.321 287.474C356.305 287.474 358.885 290.472 358.885 294.391Z" fill="#2D9CDB" stroke="#2D9CDB"/>
<path d="M1064.21 407.211C1064.21 411.13 1061.63 414.127 1058.65 414.127C1055.66 414.127 1053.08 411.13 1053.08 407.211C1053.08 403.293 1055.66 400.295 1058.65 400.295C1061.63 400.295 1064.21 403.293 1064.21 407.211Z" fill="#2D9CDB" stroke="#2D9CDB"/>
<path opacity="0.2" d="M216.639 387.9C180.157 431.387 111.614 464.823 81.9023 476.105V627.487H1192.96V324.311C1025.06 324.311 1022.99 584.823 927.634 584.823C832.282 584.823 828.137 437.131 780.461 437.131C732.784 437.131 745.222 517.131 635.359 507.9C525.497 498.67 471.602 407.387 405.271 324.311C339.296 241.681 263.068 332.552 217.378 387.019L216.639 387.9Z" fill="#2D9CDB" stroke="#2D9CDB" stroke-width="3"/>
<path opacity="0.2" d="M248.88 503.64C214.174 470.344 124.242 447.131 83.6143 439.686V627.487H1192.96V585.866C1044.22 585.866 934.734 429.535 920.273 405.172C905.812 380.808 872.759 330.051 781.863 330.051C690.967 330.051 614.531 431.565 525.701 491.458C436.87 551.352 395.554 549.321 366.632 549.321C337.711 549.321 292.263 545.261 248.88 503.64Z" fill="#7879F1" stroke="#2D9CDB" stroke-width="3"/>
<path d="M499.265 435.929C499.265 439.847 496.684 442.845 493.7 442.845C490.716 442.845 488.136 439.847 488.136 435.929C488.136 432.011 490.716 429.013 493.7 429.013C496.684 429.013 499.265 432.011 499.265 435.929Z" fill="#2D9CDB" stroke="#2D9CDB"/>
<path d="M641.358 509.775C641.358 513.694 638.777 516.691 635.793 516.691C632.809 516.691 630.229 513.694 630.229 509.775C630.229 505.857 632.809 502.859 635.793 502.859C638.777 502.859 641.358 505.857 641.358 509.775Z" fill="#2D9CDB" stroke="#2D9CDB"/>
<path d="M923.831 581.57C923.831 585.488 921.25 588.486 918.266 588.486C915.282 588.486 912.701 585.488 912.701 581.57C912.701 577.652 915.282 574.654 918.266 574.654C921.25 574.654 923.831 577.652 923.831 581.57Z" fill="#2D9CDB" stroke="#2D9CDB"/>
<path d="M781.739 437.98C781.739 441.899 779.158 444.896 776.174 444.896C773.19 444.896 770.609 441.899 770.609 437.98C770.609 434.062 773.19 431.064 776.174 431.064C779.158 431.064 781.739 434.062 781.739 437.98Z" fill="#2D9CDB" stroke="#2D9CDB"/>
<path d="M81.9023 437.011C122.593 444.413 212.664 467.494 247.423 500.601C290.873 541.985 336.391 546.022 365.357 546.022C394.323 546.022 435.704 548.041 524.671 488.488C613.639 428.936 690.192 328 781.229 328C872.265 328 905.369 378.468 919.852 402.693C934.336 426.917 1043.99 582.359 1192.96 582.359" stroke="#A5A6F6" stroke-width="3"/>
<path d="M86.5384 435.692C86.5384 439.47 83.9987 442.372 81.0465 442.372C78.0943 442.372 75.5547 439.47 75.5547 435.692C75.5547 431.915 78.0943 429.013 81.0465 429.013C83.9987 429.013 86.5384 431.915 86.5384 435.692Z" fill="#7879F1" stroke="#A5A6F6"/>
<path d="M216.647 478.769C216.647 482.547 214.107 485.449 211.155 485.449C208.203 485.449 205.663 482.547 205.663 478.769C205.663 474.992 208.203 472.09 211.155 472.09C214.107 472.09 216.647 474.992 216.647 478.769Z" fill="#7879F1" stroke="#A5A6F6"/>
<path d="M358.74 546.462C358.74 550.239 356.2 553.141 353.248 553.141C350.296 553.141 347.756 550.239 347.756 546.462C347.756 542.684 350.296 539.782 353.248 539.782C356.2 539.782 358.74 542.684 358.74 546.462Z" fill="#7879F1" stroke="#A5A6F6"/>
<path d="M499.119 509.538C499.119 513.316 496.58 516.218 493.628 516.218C490.675 516.218 488.136 513.316 488.136 509.538C488.136 505.761 490.675 502.859 493.628 502.859C496.58 502.859 499.119 505.761 499.119 509.538Z" fill="#7879F1" stroke="#A5A6F6"/>
<path d="M641.212 398.769C641.212 402.547 638.673 405.449 635.72 405.449C632.768 405.449 630.229 402.547 630.229 398.769C630.229 394.992 632.768 392.09 635.72 392.09C638.673 392.09 641.212 394.992 641.212 398.769Z" fill="#7879F1" stroke="#A5A6F6"/>
<path d="M781.593 326.974C781.593 330.752 779.053 333.654 776.101 333.654C773.149 333.654 770.609 330.752 770.609 326.974C770.609 323.197 773.149 320.295 776.101 320.295C779.053 320.295 781.593 323.197 781.593 326.974Z" fill="#7879F1" stroke="#A5A6F6"/>
<path d="M923.685 398.769C923.685 402.547 921.145 405.449 918.193 405.449C915.241 405.449 912.701 402.547 912.701 398.769C912.701 394.992 915.241 392.09 918.193 392.09C921.145 392.09 923.685 394.992 923.685 398.769Z" fill="#7879F1" stroke="#A5A6F6"/>
<path d="M1197.6 583.385C1197.6 587.162 1195.06 590.064 1192.11 590.064C1189.15 590.064 1186.61 587.162 1186.61 583.385C1186.61 579.607 1189.15 576.705 1192.11 576.705C1195.06 576.705 1197.6 579.607 1197.6 583.385Z" fill="#7879F1" stroke="#A5A6F6"/>
<path d="M1065.78 540.308C1065.78 544.085 1063.24 546.987 1060.29 546.987C1057.33 546.987 1054.79 544.085 1054.79 540.308C1054.79 536.53 1057.33 533.628 1060.29 533.628C1063.24 533.628 1065.78 536.53 1065.78 540.308Z" fill="#7879F1" stroke="#A5A6F6"/>
<ellipse cx="71" cy="710.5" rx="10" ry="10.5" fill="#0C6F85"/>
<path d="M63.2426 98H54.8486V72.0711H63.5085C66.049 72.0711 68.2309 72.5902 70.054 73.6284C71.8771 74.6581 73.274 76.1394 74.2446 78.0723C75.2237 79.9967 75.7133 82.3051 75.7133 84.9976C75.7133 87.6985 75.2195 90.0196 74.232 91.9609C73.2529 93.9022 71.8349 95.3961 69.978 96.4427C68.1211 97.4809 65.876 98 63.2426 98ZM58.7607 94.5816H63.0274C65.0024 94.5816 66.6441 94.2103 67.9523 93.4675C69.2606 92.7163 70.2397 91.6317 70.8896 90.2137C71.5395 88.7873 71.8644 87.0486 71.8644 84.9976C71.8644 82.9635 71.5395 81.2374 70.8896 79.8194C70.2481 78.4014 69.2901 77.3253 68.0156 76.591C66.7411 75.8567 65.1586 75.4895 63.2679 75.4895H58.7607V94.5816ZM85.9335 98.4305C84.7012 98.4305 83.5871 98.2026 82.5911 97.7468C81.5951 97.2826 80.806 96.6116 80.2236 95.7338C79.6496 94.856 79.3627 93.7798 79.3627 92.5053C79.3627 91.4081 79.5737 90.5049 79.9957 89.7959C80.4177 89.087 80.9874 88.5257 81.7049 88.1121C82.4223 87.6985 83.2241 87.3862 84.1104 87.1752C84.9966 86.9642 85.8997 86.8038 86.8197 86.6941C87.9845 86.5591 88.9298 86.4493 89.6557 86.3649C90.3816 86.2721 90.9091 86.1244 91.2383 85.9218C91.5675 85.7192 91.732 85.3901 91.732 84.9343V84.8457C91.732 83.74 91.4198 82.8833 90.7952 82.2756C90.179 81.6679 89.259 81.364 88.0352 81.364C86.7607 81.364 85.7563 81.6468 85.0219 82.2123C84.2961 82.7693 83.7939 83.3897 83.5153 84.0734L79.9577 83.2631C80.3797 82.0814 80.9959 81.1277 81.8062 80.4018C82.6249 79.6675 83.566 79.1357 84.6295 78.8066C85.693 78.469 86.8113 78.3001 87.9845 78.3001C88.761 78.3001 89.584 78.393 90.4533 78.5787C91.3311 78.7559 92.1498 79.0851 92.9095 79.5662C93.6776 80.0473 94.3064 80.7352 94.7959 81.6299C95.2854 82.5161 95.5302 83.6682 95.5302 85.0862V98H91.8333V95.3413H91.6814C91.4366 95.8308 91.0695 96.3119 90.5799 96.7846C90.0904 97.2572 89.4616 97.6497 88.6935 97.962C87.9254 98.2743 87.0054 98.4305 85.9335 98.4305ZM86.7564 95.3919C87.803 95.3919 88.6977 95.1851 89.4405 94.7716C90.1917 94.358 90.7614 93.8178 91.1497 93.151C91.5464 92.4758 91.7447 91.7541 91.7447 90.986V88.4792C91.6097 88.6143 91.348 88.7409 90.9597 88.8591C90.5799 88.9688 90.1453 89.0659 89.6557 89.1503C89.1662 89.2262 88.6893 89.298 88.2251 89.3655C87.7608 89.4246 87.3726 89.4752 87.0603 89.5174C86.326 89.6103 85.655 89.7664 85.0473 89.9859C84.448 90.2053 83.9669 90.5218 83.604 90.9354C83.2495 91.3405 83.0722 91.8807 83.0722 92.556C83.0722 93.4928 83.4183 94.2018 84.1104 94.6829C84.8025 95.1556 85.6845 95.3919 86.7564 95.3919ZM109.65 78.5534V81.5919H99.0277V78.5534H109.65ZM101.876 73.8943H105.662V92.2901C105.662 93.0244 105.772 93.5772 105.991 93.9486C106.21 94.3116 106.493 94.5605 106.839 94.6956C107.194 94.8222 107.578 94.8855 107.991 94.8855C108.295 94.8855 108.561 94.8644 108.789 94.8222C109.017 94.78 109.194 94.7462 109.321 94.7209L110.004 97.8481C109.785 97.9325 109.473 98.0169 109.068 98.1013C108.662 98.1941 108.156 98.2448 107.548 98.2532C106.552 98.2701 105.624 98.0928 104.763 97.7215C103.902 97.3501 103.206 96.7761 102.674 95.9996C102.142 95.2231 101.876 94.2482 101.876 93.075V73.8943ZM119.497 98.4305C118.264 98.4305 117.15 98.2026 116.154 97.7468C115.158 97.2826 114.369 96.6116 113.787 95.7338C113.213 94.856 112.926 93.7798 112.926 92.5053C112.926 91.4081 113.137 90.5049 113.559 89.7959C113.981 89.087 114.551 88.5257 115.268 88.1121C115.985 87.6985 116.787 87.3862 117.674 87.1752C118.56 86.9642 119.463 86.8038 120.383 86.6941C121.548 86.5591 122.493 86.4493 123.219 86.3649C123.945 86.2721 124.472 86.1244 124.801 85.9218C125.131 85.7192 125.295 85.3901 125.295 84.9343V84.8457C125.295 83.74 124.983 82.8833 124.358 82.2756C123.742 81.6679 122.822 81.364 121.598 81.364C120.324 81.364 119.319 81.6468 118.585 82.2123C117.859 82.7693 117.357 83.3897 117.079 84.0734L113.521 83.2631C113.943 82.0814 114.559 81.1277 115.369 80.4018C116.188 79.6675 117.129 79.1357 118.193 78.8066C119.256 78.469 120.374 78.3001 121.548 78.3001C122.324 78.3001 123.147 78.393 124.017 78.5787C124.894 78.7559 125.713 79.0851 126.473 79.5662C127.241 80.0473 127.87 80.7352 128.359 81.6299C128.849 82.5161 129.093 83.6682 129.093 85.0862V98H125.397V95.3413H125.245C125 95.8308 124.633 96.3119 124.143 96.7846C123.654 97.2572 123.025 97.6497 122.257 97.962C121.489 98.2743 120.569 98.4305 119.497 98.4305ZM120.32 95.3919C121.366 95.3919 122.261 95.1851 123.004 94.7716C123.755 94.358 124.325 93.8178 124.713 93.151C125.11 92.4758 125.308 91.7541 125.308 90.986V88.4792C125.173 88.6143 124.911 88.7409 124.523 88.8591C124.143 88.9688 123.708 89.0659 123.219 89.1503C122.729 89.2262 122.252 89.298 121.788 89.3655C121.324 89.4246 120.936 89.4752 120.623 89.5174C119.889 89.6103 119.218 89.7664 118.61 89.9859C118.011 90.2053 117.53 90.5218 117.167 90.9354C116.813 91.3405 116.635 91.8807 116.635 92.556C116.635 93.4928 116.981 94.2018 117.674 94.6829C118.366 95.1556 119.248 95.3919 120.32 95.3919ZM146.065 98H141.912L151.243 72.0711H155.763L165.094 98H160.941L153.611 76.7809H153.408L146.065 98ZM146.761 87.8462H160.232V91.138H146.761V87.8462ZM172.32 86.4536V98H168.534V78.5534H172.168V81.7185H172.408C172.856 80.6888 173.556 79.8616 174.51 79.237C175.472 78.6124 176.683 78.3001 178.144 78.3001C179.469 78.3001 180.629 78.5787 181.625 79.1357C182.621 79.6844 183.394 80.5031 183.942 81.5919C184.491 82.6807 184.765 84.0269 184.765 85.6306V98H180.98V86.0864C180.98 84.6769 180.612 83.5754 179.878 82.782C179.144 81.9802 178.135 81.5792 176.852 81.5792C175.974 81.5792 175.194 81.7691 174.51 82.149C173.835 82.5288 173.299 83.0858 172.902 83.8202C172.514 84.546 172.32 85.4238 172.32 86.4536ZM195.501 98.4305C194.269 98.4305 193.155 98.2026 192.159 97.7468C191.163 97.2826 190.374 96.6116 189.791 95.7338C189.217 94.856 188.93 93.7798 188.93 92.5053C188.93 91.4081 189.141 90.5049 189.563 89.7959C189.985 89.087 190.555 88.5257 191.273 88.1121C191.99 87.6985 192.792 87.3862 193.678 87.1752C194.564 86.9642 195.468 86.8038 196.388 86.6941C197.552 86.5591 198.498 86.4493 199.223 86.3649C199.949 86.2721 200.477 86.1244 200.806 85.9218C201.135 85.7192 201.3 85.3901 201.3 84.9343V84.8457C201.3 83.74 200.988 82.8833 200.363 82.2756C199.747 81.6679 198.827 81.364 197.603 81.364C196.328 81.364 195.324 81.6468 194.59 82.2123C193.864 82.7693 193.362 83.3897 193.083 84.0734L189.525 83.2631C189.948 82.0814 190.564 81.1277 191.374 80.4018C192.193 79.6675 193.134 79.1357 194.197 78.8066C195.261 78.469 196.379 78.3001 197.552 78.3001C198.329 78.3001 199.152 78.393 200.021 78.5787C200.899 78.7559 201.718 79.0851 202.477 79.5662C203.245 80.0473 203.874 80.7352 204.364 81.6299C204.853 82.5161 205.098 83.6682 205.098 85.0862V98H201.401V95.3413H201.249C201.004 95.8308 200.637 96.3119 200.148 96.7846C199.658 97.2572 199.029 97.6497 198.261 97.962C197.493 98.2743 196.573 98.4305 195.501 98.4305ZM196.324 95.3919C197.371 95.3919 198.266 95.1851 199.008 94.7716C199.759 94.358 200.329 93.8178 200.717 93.151C201.114 92.4758 201.312 91.7541 201.312 90.986V88.4792C201.177 88.6143 200.916 88.7409 200.528 88.8591C200.148 88.9688 199.713 89.0659 199.223 89.1503C198.734 89.2262 198.257 89.298 197.793 89.3655C197.329 89.4246 196.94 89.4752 196.628 89.5174C195.894 89.6103 195.223 89.7664 194.615 89.9859C194.016 90.2053 193.535 90.5218 193.172 90.9354C192.817 91.3405 192.64 91.8807 192.64 92.556C192.64 93.4928 192.986 94.2018 193.678 94.6829C194.37 95.1556 195.252 95.3919 196.324 95.3919ZM213.926 72.0711V98H210.14V72.0711H213.926ZM221.411 105.292C220.846 105.292 220.331 105.246 219.867 105.153C219.402 105.069 219.056 104.976 218.828 104.875L219.74 101.773C220.432 101.959 221.048 102.039 221.588 102.013C222.129 101.988 222.605 101.786 223.019 101.406C223.441 101.026 223.812 100.406 224.133 99.5446L224.602 98.2532L217.486 78.5534H221.538L226.463 93.6448H226.665L231.59 78.5534H235.654L227.64 100.595C227.269 101.608 226.796 102.465 226.222 103.166C225.648 103.875 224.965 104.406 224.171 104.761C223.378 105.115 222.458 105.292 221.411 105.292ZM248.29 78.5534V81.5919H237.667V78.5534H248.29ZM240.516 73.8943H244.301V92.2901C244.301 93.0244 244.411 93.5772 244.631 93.9486C244.85 94.3116 245.133 94.5605 245.479 94.6956C245.833 94.8222 246.217 94.8855 246.631 94.8855C246.935 94.8855 247.201 94.8644 247.429 94.8222C247.657 94.78 247.834 94.7462 247.96 94.7209L248.644 97.8481C248.425 97.9325 248.112 98.0169 247.707 98.1013C247.302 98.1941 246.796 98.2448 246.188 98.2532C245.192 98.2701 244.263 98.0928 243.403 97.7215C242.542 97.3501 241.845 96.7761 241.314 95.9996C240.782 95.2231 240.516 94.2482 240.516 93.075V73.8943ZM252.477 98V78.5534H256.263V98H252.477ZM254.389 75.5528C253.73 75.5528 253.165 75.3334 252.692 74.8945C252.228 74.4471 251.996 73.9154 251.996 73.2992C251.996 72.6746 252.228 72.1429 252.692 71.704C253.165 71.2566 253.73 71.033 254.389 71.033C255.047 71.033 255.608 71.2566 256.073 71.704C256.545 72.1429 256.782 72.6746 256.782 73.2992C256.782 73.9154 256.545 74.4471 256.073 74.8945C255.608 75.3334 255.047 75.5528 254.389 75.5528ZM269.547 98.3925C267.664 98.3925 266.044 97.9662 264.685 97.1138C263.335 96.2528 262.296 95.067 261.57 93.5561C260.845 92.0453 260.482 90.315 260.482 88.3653C260.482 86.3903 260.853 84.6473 261.596 83.1365C262.339 81.6172 263.385 80.4313 264.736 79.5789C266.086 78.7264 267.677 78.3001 269.509 78.3001C270.986 78.3001 272.302 78.5745 273.459 79.1231C274.615 79.6633 275.548 80.4229 276.257 81.402C276.974 82.3811 277.4 83.5247 277.535 84.833H273.851C273.649 83.9214 273.184 83.1365 272.459 82.4781C271.741 81.8198 270.779 81.4906 269.572 81.4906C268.517 81.4906 267.593 81.7691 266.799 82.3262C266.014 82.8748 265.402 83.6598 264.964 84.6811C264.525 85.6939 264.305 86.8925 264.305 88.2767C264.305 89.6947 264.52 90.9185 264.951 91.9482C265.381 92.978 265.989 93.7756 266.774 94.3411C267.567 94.9066 268.5 95.1894 269.572 95.1894C270.289 95.1894 270.939 95.0585 271.522 94.7969C272.113 94.5268 272.606 94.1427 273.003 93.6448C273.408 93.1468 273.691 92.5475 273.851 91.847H277.535C277.4 93.1046 276.991 94.2271 276.307 95.2147C275.624 96.2022 274.708 96.9787 273.56 97.5442C272.421 98.1097 271.083 98.3925 269.547 98.3925ZM296.156 83.3011L292.725 83.9088C292.582 83.4699 292.354 83.0521 292.041 82.6554C291.737 82.2587 291.324 81.9337 290.801 81.6805C290.277 81.4273 289.623 81.3007 288.838 81.3007C287.766 81.3007 286.872 81.5413 286.154 82.0224C285.437 82.495 285.078 83.1069 285.078 83.8581C285.078 84.508 285.319 85.0314 285.8 85.4281C286.281 85.8247 287.057 86.1497 288.129 86.4029L291.218 87.1119C293.008 87.5255 294.341 88.1627 295.219 89.0237C296.097 89.8846 296.536 91.0029 296.536 92.3787C296.536 93.5435 296.198 94.5816 295.523 95.4932C294.856 96.3963 293.924 97.1053 292.725 97.6202C291.535 98.135 290.155 98.3925 288.585 98.3925C286.407 98.3925 284.631 97.9283 283.255 96.9998C281.879 96.0629 281.035 94.7336 280.723 93.0117L284.382 92.4547C284.61 93.4084 285.078 94.1301 285.787 94.6196C286.496 95.1007 287.42 95.3413 288.56 95.3413C289.8 95.3413 290.792 95.0838 291.535 94.569C292.278 94.0457 292.649 93.4084 292.649 92.6572C292.649 92.0495 292.421 91.5389 291.965 91.1253C291.518 90.7117 290.83 90.3994 289.902 90.1884L286.61 89.4668C284.795 89.0532 283.453 88.3948 282.584 87.4917C281.723 86.5886 281.292 85.4449 281.292 84.0607C281.292 82.9128 281.613 81.9084 282.255 81.0475C282.896 80.1866 283.782 79.5156 284.913 79.0345C286.044 78.5449 287.34 78.3001 288.8 78.3001C290.902 78.3001 292.556 78.7559 293.763 79.6675C294.97 80.5706 295.768 81.7818 296.156 83.3011Z" fill="white"/>
<path d="M66.0341 126.727C66.0341 128.261 65.7571 129.587 65.2031 130.705C64.6491 131.822 63.8892 132.684 62.9233 133.29C61.9574 133.896 60.8542 134.199 59.6136 134.199C58.3731 134.199 57.2699 133.896 56.304 133.29C55.3381 132.684 54.5781 131.822 54.0241 130.705C53.4702 129.587 53.1932 128.261 53.1932 126.727C53.1932 125.193 53.4702 123.867 54.0241 122.75C54.5781 121.633 55.3381 120.771 56.304 120.165C57.2699 119.559 58.3731 119.256 59.6136 119.256C60.8542 119.256 61.9574 119.559 62.9233 120.165C63.8892 120.771 64.6491 121.633 65.2031 122.75C65.7571 123.867 66.0341 125.193 66.0341 126.727ZM64.3295 126.727C64.3295 125.468 64.1188 124.405 63.6974 123.538C63.2808 122.672 62.715 122.016 62 121.571C61.2898 121.126 60.4943 120.903 59.6136 120.903C58.733 120.903 57.9351 121.126 57.2202 121.571C56.5099 122.016 55.9441 122.672 55.5227 123.538C55.1061 124.405 54.8977 125.468 54.8977 126.727C54.8977 127.987 55.1061 129.05 55.5227 129.916C55.9441 130.783 56.5099 131.438 57.2202 131.884C57.9351 132.329 58.733 132.551 59.6136 132.551C60.4943 132.551 61.2898 132.329 62 131.884C62.715 131.438 63.2808 130.783 63.6974 129.916C64.1188 129.05 64.3295 127.987 64.3295 126.727ZM68.7685 138.091V123.091H70.3878V124.824H70.5866C70.7098 124.634 70.8802 124.393 71.098 124.099C71.3205 123.801 71.6378 123.536 72.0497 123.304C72.4664 123.067 73.0298 122.949 73.7401 122.949C74.6586 122.949 75.4683 123.179 76.169 123.638C76.8698 124.097 77.4167 124.748 77.8097 125.591C78.2027 126.434 78.3991 127.428 78.3991 128.574C78.3991 129.729 78.2027 130.731 77.8097 131.578C77.4167 132.421 76.8722 133.074 76.1761 133.538C75.4801 133.998 74.6776 134.227 73.7685 134.227C73.0677 134.227 72.5066 134.111 72.0852 133.879C71.6638 133.643 71.3395 133.375 71.1122 133.077C70.8849 132.774 70.7098 132.523 70.5866 132.324H70.4446V138.091H68.7685ZM70.4162 128.545C70.4162 129.369 70.5369 130.096 70.7784 130.726C71.0199 131.351 71.3726 131.841 71.8366 132.196C72.3007 132.546 72.8688 132.722 73.5412 132.722C74.242 132.722 74.8267 132.537 75.2955 132.168C75.7689 131.794 76.1241 131.292 76.3608 130.662C76.6023 130.027 76.723 129.322 76.723 128.545C76.723 127.778 76.6046 127.087 76.3679 126.472C76.1359 125.851 75.7831 125.361 75.3097 125.001C74.8409 124.637 74.2514 124.455 73.5412 124.455C72.8594 124.455 72.2865 124.627 71.8224 124.973C71.3584 125.314 71.008 125.792 70.7713 126.408C70.5346 127.018 70.4162 127.731 70.4162 128.545ZM85.7003 123.091V124.511H80.0469V123.091H85.7003ZM81.6946 120.477H83.3707V130.875C83.3707 131.348 83.4394 131.704 83.5767 131.94C83.7188 132.172 83.8987 132.329 84.1165 132.409C84.339 132.485 84.5734 132.523 84.8196 132.523C85.0043 132.523 85.1558 132.513 85.2741 132.494C85.3925 132.471 85.4872 132.452 85.5582 132.438L85.8991 133.943C85.7855 133.986 85.6269 134.028 85.4233 134.071C85.2197 134.118 84.9616 134.142 84.6491 134.142C84.1757 134.142 83.7116 134.04 83.2571 133.837C82.8073 133.633 82.4332 133.323 82.1349 132.906C81.8414 132.49 81.6946 131.964 81.6946 131.33V120.477ZM88.2216 134V123.091H89.8977V134H88.2216ZM89.0739 121.273C88.7472 121.273 88.4654 121.161 88.2287 120.939C87.9967 120.716 87.8807 120.449 87.8807 120.136C87.8807 119.824 87.9967 119.556 88.2287 119.334C88.4654 119.111 88.7472 119 89.0739 119C89.4006 119 89.6799 119.111 89.9119 119.334C90.1487 119.556 90.267 119.824 90.267 120.136C90.267 120.449 90.1487 120.716 89.9119 120.939C89.6799 121.161 89.4006 121.273 89.0739 121.273ZM92.9677 134V123.091H94.587V124.795H94.729C94.9563 124.213 95.3233 123.761 95.8299 123.439C96.3365 123.112 96.945 122.949 97.6552 122.949C98.3749 122.949 98.9738 123.112 99.4521 123.439C99.935 123.761 100.311 124.213 100.581 124.795H100.695C100.974 124.232 101.393 123.785 101.952 123.453C102.511 123.117 103.181 122.949 103.962 122.949C104.937 122.949 105.735 123.254 106.355 123.865C106.976 124.471 107.286 125.416 107.286 126.699V134H105.61V126.699C105.61 125.894 105.39 125.319 104.949 124.973C104.509 124.627 103.99 124.455 103.394 124.455C102.627 124.455 102.033 124.687 101.611 125.151C101.19 125.61 100.979 126.192 100.979 126.898V134H99.2745V126.528C99.2745 125.908 99.0733 125.409 98.6708 125.03C98.2683 124.646 97.7499 124.455 97.1154 124.455C96.6798 124.455 96.2726 124.571 95.8938 124.803C95.5198 125.035 95.2167 125.357 94.9847 125.768C94.7575 126.176 94.6438 126.647 94.6438 127.182V134H92.9677ZM110.35 134V123.091H112.027V134H110.35ZM111.203 121.273C110.876 121.273 110.594 121.161 110.358 120.939C110.126 120.716 110.01 120.449 110.01 120.136C110.01 119.824 110.126 119.556 110.358 119.334C110.594 119.111 110.876 119 111.203 119C111.529 119 111.809 119.111 112.041 119.334C112.278 119.556 112.396 119.824 112.396 120.136C112.396 120.449 112.278 120.716 112.041 120.939C111.809 121.161 111.529 121.273 111.203 121.273ZM114.784 134V132.722L120.977 124.767V124.653H114.983V123.091H123.136V124.426L117.114 132.324V132.438H123.335V134H114.784ZM130.178 134.227C129.127 134.227 128.22 133.995 127.458 133.531C126.701 133.062 126.116 132.409 125.704 131.571C125.297 130.728 125.093 129.748 125.093 128.631C125.093 127.513 125.297 126.528 125.704 125.676C126.116 124.819 126.689 124.152 127.423 123.673C128.161 123.19 129.023 122.949 130.008 122.949C130.576 122.949 131.137 123.044 131.691 123.233C132.245 123.422 132.749 123.73 133.204 124.156C133.658 124.578 134.021 125.136 134.29 125.832C134.56 126.528 134.695 127.385 134.695 128.403V129.114H126.286V127.665H132.991C132.991 127.049 132.868 126.5 132.621 126.017C132.38 125.534 132.034 125.153 131.585 124.874C131.139 124.594 130.614 124.455 130.008 124.455C129.34 124.455 128.763 124.62 128.275 124.952C127.792 125.278 127.42 125.705 127.16 126.23C126.899 126.756 126.769 127.319 126.769 127.92V128.886C126.769 129.71 126.911 130.409 127.195 130.982C127.484 131.55 127.884 131.983 128.396 132.281C128.907 132.575 129.501 132.722 130.178 132.722C130.619 132.722 131.016 132.66 131.371 132.537C131.731 132.409 132.041 132.22 132.302 131.969C132.562 131.713 132.763 131.396 132.906 131.017L134.525 131.472C134.354 132.021 134.068 132.504 133.665 132.92C133.263 133.332 132.766 133.654 132.174 133.886C131.582 134.114 130.917 134.227 130.178 134.227ZM143.95 138.091C143.665 138.091 143.412 138.067 143.19 138.02C142.967 137.977 142.813 137.935 142.728 137.892L143.154 136.415C143.561 136.519 143.921 136.557 144.234 136.528C144.546 136.5 144.823 136.36 145.065 136.109C145.311 135.863 145.536 135.463 145.739 134.909L146.052 134.057L142.018 123.091H143.836L146.847 131.784H146.961L149.972 123.091H151.79L147.16 135.591C146.951 136.154 146.693 136.621 146.386 136.99C146.078 137.364 145.72 137.641 145.313 137.821C144.911 138.001 144.456 138.091 143.95 138.091ZM158.044 134.227C157.059 134.227 156.195 133.993 155.452 133.524C154.713 133.055 154.135 132.4 153.719 131.557C153.307 130.714 153.101 129.729 153.101 128.602C153.101 127.466 153.307 126.474 153.719 125.626C154.135 124.779 154.713 124.121 155.452 123.652C156.195 123.183 157.059 122.949 158.044 122.949C159.029 122.949 159.891 123.183 160.629 123.652C161.373 124.121 161.95 124.779 162.362 125.626C162.779 126.474 162.987 127.466 162.987 128.602C162.987 129.729 162.779 130.714 162.362 131.557C161.95 132.4 161.373 133.055 160.629 133.524C159.891 133.993 159.029 134.227 158.044 134.227ZM158.044 132.722C158.792 132.722 159.408 132.53 159.891 132.146C160.374 131.763 160.731 131.259 160.963 130.634C161.195 130.009 161.311 129.331 161.311 128.602C161.311 127.873 161.195 127.194 160.963 126.564C160.731 125.934 160.374 125.425 159.891 125.037C159.408 124.649 158.792 124.455 158.044 124.455C157.296 124.455 156.68 124.649 156.197 125.037C155.714 125.425 155.357 125.934 155.125 126.564C154.893 127.194 154.777 127.873 154.777 128.602C154.777 129.331 154.893 130.009 155.125 130.634C155.357 131.259 155.714 131.763 156.197 132.146C156.68 132.53 157.296 132.722 158.044 132.722ZM172.421 129.54V123.091H174.097V134H172.421V132.153H172.307C172.051 132.707 171.654 133.179 171.114 133.567C170.574 133.95 169.892 134.142 169.069 134.142C168.387 134.142 167.781 133.993 167.25 133.695C166.72 133.392 166.303 132.937 166 132.331C165.697 131.72 165.546 130.951 165.546 130.023V123.091H167.222V129.909C167.222 130.705 167.444 131.339 167.89 131.812C168.339 132.286 168.912 132.523 169.608 132.523C170.025 132.523 170.449 132.416 170.88 132.203C171.315 131.99 171.68 131.663 171.973 131.223C172.272 130.783 172.421 130.222 172.421 129.54ZM177.167 134V123.091H178.786V124.739H178.9C179.099 124.199 179.459 123.761 179.979 123.425C180.5 123.089 181.087 122.92 181.741 122.92C181.864 122.92 182.018 122.923 182.202 122.928C182.387 122.932 182.527 122.939 182.621 122.949V124.653C182.565 124.639 182.434 124.618 182.231 124.589C182.032 124.556 181.821 124.54 181.599 124.54C181.068 124.54 180.595 124.651 180.178 124.874C179.766 125.091 179.44 125.394 179.198 125.783C178.961 126.166 178.843 126.604 178.843 127.097V134H177.167ZM190.461 134V119.455H192.137V124.824H192.279C192.402 124.634 192.572 124.393 192.79 124.099C193.013 123.801 193.33 123.536 193.742 123.304C194.158 123.067 194.722 122.949 195.432 122.949C196.351 122.949 197.16 123.179 197.861 123.638C198.562 124.097 199.109 124.748 199.502 125.591C199.895 126.434 200.091 127.428 200.091 128.574C200.091 129.729 199.895 130.731 199.502 131.578C199.109 132.421 198.564 133.074 197.868 133.538C197.172 133.998 196.37 134.227 195.461 134.227C194.76 134.227 194.199 134.111 193.777 133.879C193.356 133.643 193.032 133.375 192.804 133.077C192.577 132.774 192.402 132.523 192.279 132.324H192.08V134H190.461ZM192.108 128.545C192.108 129.369 192.229 130.096 192.471 130.726C192.712 131.351 193.065 131.841 193.529 132.196C193.993 132.546 194.561 132.722 195.233 132.722C195.934 132.722 196.519 132.537 196.988 132.168C197.461 131.794 197.816 131.292 198.053 130.662C198.294 130.027 198.415 129.322 198.415 128.545C198.415 127.778 198.297 127.087 198.06 126.472C197.828 125.851 197.475 125.361 197.002 125.001C196.533 124.637 195.944 124.455 195.233 124.455C194.551 124.455 193.979 124.627 193.515 124.973C193.051 125.314 192.7 125.792 192.463 126.408C192.227 127.018 192.108 127.731 192.108 128.545ZM209.53 129.54V123.091H211.206V134H209.53V132.153H209.417C209.161 132.707 208.763 133.179 208.223 133.567C207.684 133.95 207.002 134.142 206.178 134.142C205.496 134.142 204.89 133.993 204.36 133.695C203.829 133.392 203.413 132.937 203.11 132.331C202.807 131.72 202.655 130.951 202.655 130.023V123.091H204.331V129.909C204.331 130.705 204.554 131.339 204.999 131.812C205.449 132.286 206.022 132.523 206.718 132.523C207.134 132.523 207.558 132.416 207.989 132.203C208.425 131.99 208.789 131.663 209.083 131.223C209.381 130.783 209.53 130.222 209.53 129.54ZM222.004 125.534L220.498 125.96C220.403 125.709 220.263 125.465 220.079 125.229C219.899 124.987 219.653 124.788 219.34 124.632C219.028 124.476 218.628 124.398 218.14 124.398C217.472 124.398 216.916 124.552 216.471 124.859C216.031 125.162 215.81 125.548 215.81 126.017C215.81 126.434 215.962 126.763 216.265 127.004C216.568 127.246 217.041 127.447 217.685 127.608L219.305 128.006C220.28 128.242 221.007 128.605 221.485 129.092C221.963 129.575 222.202 130.198 222.202 130.96C222.202 131.585 222.022 132.144 221.663 132.636C221.308 133.129 220.81 133.517 220.171 133.801C219.532 134.085 218.789 134.227 217.941 134.227C216.828 134.227 215.907 133.986 215.178 133.503C214.449 133.02 213.987 132.314 213.793 131.386L215.384 130.989C215.536 131.576 215.822 132.016 216.244 132.31C216.67 132.603 217.226 132.75 217.913 132.75C218.694 132.75 219.314 132.584 219.773 132.253C220.237 131.917 220.469 131.514 220.469 131.045C220.469 130.667 220.337 130.349 220.072 130.094C219.807 129.833 219.399 129.639 218.85 129.511L217.032 129.085C216.033 128.848 215.299 128.482 214.83 127.984C214.366 127.482 214.134 126.855 214.134 126.102C214.134 125.487 214.307 124.942 214.653 124.469C215.003 123.995 215.479 123.624 216.08 123.354C216.686 123.084 217.373 122.949 218.14 122.949C219.219 122.949 220.067 123.186 220.683 123.659C221.303 124.133 221.743 124.758 222.004 125.534ZM224.725 134V123.091H226.402V134H224.725ZM225.578 121.273C225.251 121.273 224.969 121.161 224.733 120.939C224.501 120.716 224.385 120.449 224.385 120.136C224.385 119.824 224.501 119.556 224.733 119.334C224.969 119.111 225.251 119 225.578 119C225.904 119 226.184 119.111 226.416 119.334C226.653 119.556 226.771 119.824 226.771 120.136C226.771 120.449 226.653 120.716 226.416 120.939C226.184 121.161 225.904 121.273 225.578 121.273ZM231.148 127.438V134H229.472V123.091H231.091V124.795H231.233C231.489 124.241 231.877 123.796 232.398 123.46C232.919 123.119 233.591 122.949 234.415 122.949C235.153 122.949 235.8 123.1 236.354 123.403C236.908 123.702 237.339 124.156 237.646 124.767C237.954 125.373 238.108 126.14 238.108 127.068V134H236.432V127.182C236.432 126.325 236.209 125.657 235.764 125.179C235.319 124.696 234.708 124.455 233.932 124.455C233.397 124.455 232.919 124.571 232.497 124.803C232.08 125.035 231.751 125.373 231.51 125.818C231.268 126.263 231.148 126.803 231.148 127.438ZM245.745 134.227C244.694 134.227 243.787 133.995 243.025 133.531C242.267 133.062 241.682 132.409 241.27 131.571C240.863 130.728 240.659 129.748 240.659 128.631C240.659 127.513 240.863 126.528 241.27 125.676C241.682 124.819 242.255 124.152 242.989 123.673C243.728 123.19 244.589 122.949 245.574 122.949C246.142 122.949 246.703 123.044 247.257 123.233C247.811 123.422 248.316 123.73 248.77 124.156C249.225 124.578 249.587 125.136 249.857 125.832C250.127 126.528 250.262 127.385 250.262 128.403V129.114H241.853V127.665H248.557C248.557 127.049 248.434 126.5 248.188 126.017C247.946 125.534 247.601 125.153 247.151 124.874C246.706 124.594 246.18 124.455 245.574 124.455C244.907 124.455 244.329 124.62 243.841 124.952C243.358 125.278 242.987 125.705 242.726 126.23C242.466 126.756 242.336 127.319 242.336 127.92V128.886C242.336 129.71 242.478 130.409 242.762 130.982C243.051 131.55 243.451 131.983 243.962 132.281C244.473 132.575 245.068 132.722 245.745 132.722C246.185 132.722 246.583 132.66 246.938 132.537C247.298 132.409 247.608 132.22 247.868 131.969C248.129 131.713 248.33 131.396 248.472 131.017L250.091 131.472C249.921 132.021 249.634 132.504 249.232 132.92C248.829 133.332 248.332 133.654 247.74 133.886C247.149 134.114 246.483 134.227 245.745 134.227ZM260.539 125.534L259.033 125.96C258.938 125.709 258.799 125.465 258.614 125.229C258.434 124.987 258.188 124.788 257.875 124.632C257.563 124.476 257.163 124.398 256.675 124.398C256.007 124.398 255.451 124.552 255.006 124.859C254.566 125.162 254.346 125.548 254.346 126.017C254.346 126.434 254.497 126.763 254.8 127.004C255.103 127.246 255.577 127.447 256.221 127.608L257.84 128.006C258.815 128.242 259.542 128.605 260.02 129.092C260.498 129.575 260.738 130.198 260.738 130.96C260.738 131.585 260.558 132.144 260.198 132.636C259.843 133.129 259.346 133.517 258.706 133.801C258.067 134.085 257.324 134.227 256.476 134.227C255.364 134.227 254.443 133.986 253.713 133.503C252.984 133.02 252.523 132.314 252.328 131.386L253.919 130.989C254.071 131.576 254.357 132.016 254.779 132.31C255.205 132.603 255.761 132.75 256.448 132.75C257.229 132.75 257.849 132.584 258.309 132.253C258.773 131.917 259.005 131.514 259.005 131.045C259.005 130.667 258.872 130.349 258.607 130.094C258.342 129.833 257.935 129.639 257.385 129.511L255.567 129.085C254.568 128.848 253.834 128.482 253.365 127.984C252.901 127.482 252.669 126.855 252.669 126.102C252.669 125.487 252.842 124.942 253.188 124.469C253.538 123.995 254.014 123.624 254.615 123.354C255.221 123.084 255.908 122.949 256.675 122.949C257.755 122.949 258.602 123.186 259.218 123.659C259.838 124.133 260.278 124.758 260.539 125.534ZM270.988 125.534L269.482 125.96C269.388 125.709 269.248 125.465 269.063 125.229C268.883 124.987 268.637 124.788 268.325 124.632C268.012 124.476 267.612 124.398 267.124 124.398C266.457 124.398 265.9 124.552 265.455 124.859C265.015 125.162 264.795 125.548 264.795 126.017C264.795 126.434 264.946 126.763 265.249 127.004C265.552 127.246 266.026 127.447 266.67 127.608L268.289 128.006C269.264 128.242 269.991 128.605 270.469 129.092C270.948 129.575 271.187 130.198 271.187 130.96C271.187 131.585 271.007 132.144 270.647 132.636C270.292 133.129 269.795 133.517 269.156 133.801C268.516 134.085 267.773 134.227 266.925 134.227C265.813 134.227 264.892 133.986 264.163 133.503C263.433 133.02 262.972 132.314 262.778 131.386L264.369 130.989C264.52 131.576 264.807 132.016 265.228 132.31C265.654 132.603 266.21 132.75 266.897 132.75C267.678 132.75 268.299 132.584 268.758 132.253C269.222 131.917 269.454 131.514 269.454 131.045C269.454 130.667 269.321 130.349 269.056 130.094C268.791 129.833 268.384 129.639 267.835 129.511L266.016 129.085C265.017 128.848 264.283 128.482 263.815 127.984C263.351 127.482 263.119 126.855 263.119 126.102C263.119 125.487 263.291 124.942 263.637 124.469C263.987 123.995 264.463 123.624 265.065 123.354C265.671 123.084 266.357 122.949 267.124 122.949C268.204 122.949 269.051 123.186 269.667 123.659C270.287 124.133 270.728 124.758 270.988 125.534ZM281.806 134L278.483 123.091H280.244L282.602 131.443H282.716L285.045 123.091H286.835L289.136 131.415H289.25L291.608 123.091H293.369L290.045 134H288.397L286.011 125.619H285.841L283.454 134H281.806ZM295.585 134V123.091H297.261V134H295.585ZM296.437 121.273C296.11 121.273 295.829 121.161 295.592 120.939C295.36 120.716 295.244 120.449 295.244 120.136C295.244 119.824 295.36 119.556 295.592 119.334C295.829 119.111 296.11 119 296.437 119C296.764 119 297.043 119.111 297.275 119.334C297.512 119.556 297.63 119.824 297.63 120.136C297.63 120.449 297.512 120.716 297.275 120.939C297.043 121.161 296.764 121.273 296.437 121.273ZM305.075 123.091V124.511H299.422V123.091H305.075ZM301.07 120.477H302.746V130.875C302.746 131.348 302.814 131.704 302.952 131.94C303.094 132.172 303.274 132.329 303.491 132.409C303.714 132.485 303.948 132.523 304.195 132.523C304.379 132.523 304.531 132.513 304.649 132.494C304.768 132.471 304.862 132.452 304.933 132.438L305.274 133.943C305.161 133.986 305.002 134.028 304.798 134.071C304.595 134.118 304.337 134.142 304.024 134.142C303.551 134.142 303.087 134.04 302.632 133.837C302.182 133.633 301.808 133.323 301.51 132.906C301.216 132.49 301.07 131.964 301.07 131.33V120.477ZM309.507 127.438V134H307.831V119.455H309.507V124.795H309.649C309.905 124.232 310.288 123.785 310.8 123.453C311.316 123.117 312.002 122.949 312.859 122.949C313.603 122.949 314.254 123.098 314.812 123.396C315.371 123.69 315.804 124.142 316.112 124.753C316.425 125.359 316.581 126.131 316.581 127.068V134H314.905V127.182C314.905 126.315 314.68 125.645 314.23 125.172C313.785 124.694 313.167 124.455 312.376 124.455C311.827 124.455 311.335 124.571 310.899 124.803C310.468 125.035 310.127 125.373 309.876 125.818C309.63 126.263 309.507 126.803 309.507 127.438ZM329.392 134.227C328.483 134.227 327.68 133.998 326.984 133.538C326.288 133.074 325.743 132.421 325.35 131.578C324.958 130.731 324.761 129.729 324.761 128.574C324.761 127.428 324.958 126.434 325.35 125.591C325.743 124.748 326.29 124.097 326.991 123.638C327.692 123.179 328.502 122.949 329.42 122.949C330.13 122.949 330.691 123.067 331.103 123.304C331.52 123.536 331.837 123.801 332.055 124.099C332.278 124.393 332.45 124.634 332.574 124.824H332.716V119.455H334.392V134H332.772V132.324H332.574C332.45 132.523 332.275 132.774 332.048 133.077C331.821 133.375 331.496 133.643 331.075 133.879C330.654 134.111 330.092 134.227 329.392 134.227ZM329.619 132.722C330.291 132.722 330.859 132.546 331.324 132.196C331.788 131.841 332.14 131.351 332.382 130.726C332.623 130.096 332.744 129.369 332.744 128.545C332.744 127.731 332.626 127.018 332.389 126.408C332.152 125.792 331.802 125.314 331.338 124.973C330.874 124.627 330.301 124.455 329.619 124.455C328.909 124.455 328.317 124.637 327.843 125.001C327.375 125.361 327.022 125.851 326.785 126.472C326.553 127.087 326.437 127.778 326.437 128.545C326.437 129.322 326.556 130.027 326.792 130.662C327.034 131.292 327.389 131.794 327.858 132.168C328.331 132.537 328.918 132.722 329.619 132.722ZM340.904 134.256C340.213 134.256 339.586 134.125 339.022 133.865C338.459 133.6 338.011 133.219 337.68 132.722C337.349 132.22 337.183 131.614 337.183 130.903C337.183 130.278 337.306 129.772 337.552 129.384C337.798 128.991 338.127 128.683 338.539 128.46C338.951 128.238 339.406 128.072 339.903 127.963C340.405 127.849 340.909 127.759 341.416 127.693C342.079 127.608 342.616 127.544 343.028 127.501C343.445 127.454 343.748 127.376 343.937 127.267C344.131 127.158 344.228 126.969 344.228 126.699V126.642C344.228 125.941 344.037 125.397 343.653 125.009C343.274 124.62 342.699 124.426 341.927 124.426C341.127 124.426 340.5 124.601 340.045 124.952C339.591 125.302 339.271 125.676 339.086 126.074L337.495 125.506C337.779 124.843 338.158 124.327 338.632 123.957C339.11 123.583 339.631 123.323 340.194 123.176C340.762 123.025 341.321 122.949 341.87 122.949C342.221 122.949 342.623 122.991 343.078 123.077C343.537 123.157 343.98 123.325 344.406 123.581C344.837 123.837 345.194 124.223 345.478 124.739C345.762 125.255 345.904 125.946 345.904 126.812V134H344.228V132.523H344.143C344.029 132.759 343.84 133.013 343.575 133.283C343.31 133.553 342.957 133.782 342.517 133.972C342.076 134.161 341.539 134.256 340.904 134.256ZM341.16 132.75C341.823 132.75 342.382 132.62 342.836 132.359C343.296 132.099 343.641 131.763 343.873 131.351C344.11 130.939 344.228 130.506 344.228 130.051V128.517C344.157 128.602 344.001 128.68 343.76 128.751C343.523 128.818 343.248 128.877 342.936 128.929C342.628 128.976 342.327 129.019 342.034 129.057C341.745 129.09 341.511 129.118 341.331 129.142C340.895 129.199 340.488 129.291 340.109 129.419C339.735 129.542 339.432 129.729 339.2 129.98C338.973 130.226 338.859 130.562 338.859 130.989C338.859 131.571 339.074 132.011 339.505 132.31C339.941 132.603 340.493 132.75 341.16 132.75ZM353.708 123.091V124.511H348.055V123.091H353.708ZM349.702 120.477H351.379V130.875C351.379 131.348 351.447 131.704 351.585 131.94C351.727 132.172 351.906 132.329 352.124 132.409C352.347 132.485 352.581 132.523 352.827 132.523C353.012 132.523 353.164 132.513 353.282 132.494C353.4 132.471 353.495 132.452 353.566 132.438L353.907 133.943C353.793 133.986 353.635 134.028 353.431 134.071C353.228 134.118 352.969 134.142 352.657 134.142C352.183 134.142 351.719 134.04 351.265 133.837C350.815 133.633 350.441 133.323 350.143 132.906C349.849 132.49 349.702 131.964 349.702 131.33V120.477ZM359.44 134.256C358.748 134.256 358.121 134.125 357.558 133.865C356.994 133.6 356.547 133.219 356.215 132.722C355.884 132.22 355.718 131.614 355.718 130.903C355.718 130.278 355.841 129.772 356.087 129.384C356.334 128.991 356.663 128.683 357.075 128.46C357.487 128.238 357.941 128.072 358.438 127.963C358.94 127.849 359.444 127.759 359.951 127.693C360.614 127.608 361.151 127.544 361.563 127.501C361.98 127.454 362.283 127.376 362.472 127.267C362.666 127.158 362.763 126.969 362.763 126.699V126.642C362.763 125.941 362.572 125.397 362.188 125.009C361.809 124.62 361.234 124.426 360.462 124.426C359.662 124.426 359.035 124.601 358.58 124.952C358.126 125.302 357.806 125.676 357.621 126.074L356.031 125.506C356.315 124.843 356.693 124.327 357.167 123.957C357.645 123.583 358.166 123.323 358.729 123.176C359.298 123.025 359.856 122.949 360.406 122.949C360.756 122.949 361.158 122.991 361.613 123.077C362.072 123.157 362.515 123.325 362.941 123.581C363.372 123.837 363.729 124.223 364.013 124.739C364.298 125.255 364.44 125.946 364.44 126.812V134H362.763V132.523H362.678C362.565 132.759 362.375 133.013 362.11 133.283C361.845 133.553 361.492 133.782 361.052 133.972C360.612 134.161 360.074 134.256 359.44 134.256ZM359.695 132.75C360.358 132.75 360.917 132.62 361.371 132.359C361.831 132.099 362.176 131.763 362.408 131.351C362.645 130.939 362.763 130.506 362.763 130.051V128.517C362.692 128.602 362.536 128.68 362.295 128.751C362.058 128.818 361.783 128.877 361.471 128.929C361.163 128.976 360.862 129.019 360.569 129.057C360.28 129.09 360.046 129.118 359.866 129.142C359.43 129.199 359.023 129.291 358.644 129.419C358.27 129.542 357.967 129.729 357.735 129.98C357.508 130.226 357.394 130.562 357.394 130.989C357.394 131.571 357.61 132.011 358.04 132.31C358.476 132.603 359.028 132.75 359.695 132.75ZM377.243 134.227C376.334 134.227 375.532 133.998 374.836 133.538C374.14 133.074 373.595 132.421 373.202 131.578C372.809 130.731 372.613 129.729 372.613 128.574C372.613 127.428 372.809 126.434 373.202 125.591C373.595 124.748 374.142 124.097 374.843 123.638C375.543 123.179 376.353 122.949 377.272 122.949C377.982 122.949 378.543 123.067 378.955 123.304C379.372 123.536 379.689 123.801 379.907 124.099C380.129 124.393 380.302 124.634 380.425 124.824H380.567V119.455H382.243V134H380.624V132.324H380.425C380.302 132.523 380.127 132.774 379.9 133.077C379.672 133.375 379.348 133.643 378.926 133.879C378.505 134.111 377.944 134.227 377.243 134.227ZM377.471 132.722C378.143 132.722 378.711 132.546 379.175 132.196C379.639 131.841 379.992 131.351 380.233 130.726C380.475 130.096 380.596 129.369 380.596 128.545C380.596 127.731 380.477 127.018 380.24 126.408C380.004 125.792 379.653 125.314 379.189 124.973C378.725 124.627 378.152 124.455 377.471 124.455C376.76 124.455 376.168 124.637 375.695 125.001C375.226 125.361 374.873 125.851 374.637 126.472C374.405 127.087 374.289 127.778 374.289 128.545C374.289 129.322 374.407 130.027 374.644 130.662C374.885 131.292 375.24 131.794 375.709 132.168C376.183 132.537 376.77 132.722 377.471 132.722ZM385.546 134V123.091H387.165V124.739H387.279C387.478 124.199 387.837 123.761 388.358 123.425C388.879 123.089 389.466 122.92 390.12 122.92C390.243 122.92 390.397 122.923 390.581 122.928C390.766 122.932 390.906 122.939 391 122.949V124.653C390.944 124.639 390.813 124.618 390.61 124.589C390.411 124.556 390.2 124.54 389.978 124.54C389.447 124.54 388.974 124.651 388.557 124.874C388.145 125.091 387.819 125.394 387.577 125.783C387.34 126.166 387.222 126.604 387.222 127.097V134H385.546ZM392.987 134V123.091H394.663V134H392.987ZM393.839 121.273C393.513 121.273 393.231 121.161 392.994 120.939C392.762 120.716 392.646 120.449 392.646 120.136C392.646 119.824 392.762 119.556 392.994 119.334C393.231 119.111 393.513 119 393.839 119C394.166 119 394.446 119.111 394.678 119.334C394.914 119.556 395.033 119.824 395.033 120.136C395.033 120.449 394.914 120.716 394.678 120.939C394.446 121.161 394.166 121.273 393.839 121.273ZM406.654 123.091L402.62 134H400.915L396.881 123.091H398.699L401.711 131.784H401.824L404.836 123.091H406.654ZM413.049 134.227C411.998 134.227 411.092 133.995 410.329 133.531C409.572 133.062 408.987 132.409 408.575 131.571C408.168 130.728 407.964 129.748 407.964 128.631C407.964 127.513 408.168 126.528 408.575 125.676C408.987 124.819 409.56 124.152 410.294 123.673C411.032 123.19 411.894 122.949 412.879 122.949C413.447 122.949 414.008 123.044 414.562 123.233C415.116 123.422 415.62 123.73 416.075 124.156C416.529 124.578 416.892 125.136 417.162 125.832C417.431 126.528 417.566 127.385 417.566 128.403V129.114H409.157V127.665H415.862C415.862 127.049 415.739 126.5 415.493 126.017C415.251 125.534 414.905 125.153 414.456 124.874C414.011 124.594 413.485 124.455 412.879 124.455C412.211 124.455 411.634 124.62 411.146 124.952C410.663 125.278 410.291 125.705 410.031 126.23C409.77 126.756 409.64 127.319 409.64 127.92V128.886C409.64 129.71 409.782 130.409 410.066 130.982C410.355 131.55 410.755 131.983 411.267 132.281C411.778 132.575 412.372 132.722 413.049 132.722C413.49 132.722 413.887 132.66 414.243 132.537C414.602 132.409 414.913 132.22 415.173 131.969C415.433 131.713 415.635 131.396 415.777 131.017L417.396 131.472C417.225 132.021 416.939 132.504 416.537 132.92C416.134 133.332 415.637 133.654 415.045 133.886C414.453 134.114 413.788 134.227 413.049 134.227ZM421.792 127.438V134H420.116V123.091H421.735V124.795H421.877C422.133 124.241 422.521 123.796 423.042 123.46C423.563 123.119 424.235 122.949 425.059 122.949C425.798 122.949 426.444 123.1 426.998 123.403C427.552 123.702 427.983 124.156 428.291 124.767C428.599 125.373 428.752 126.14 428.752 127.068V134H427.076V127.182C427.076 126.325 426.854 125.657 426.409 125.179C425.964 124.696 425.353 124.455 424.576 124.455C424.041 124.455 423.563 124.571 423.142 124.803C422.725 125.035 422.396 125.373 422.154 125.818C421.913 126.263 421.792 126.803 421.792 127.438ZM441.56 134.227C440.651 134.227 439.848 133.998 439.152 133.538C438.456 133.074 437.911 132.421 437.518 131.578C437.125 130.731 436.929 129.729 436.929 128.574C436.929 127.428 437.125 126.434 437.518 125.591C437.911 124.748 438.458 124.097 439.159 123.638C439.86 123.179 440.67 122.949 441.588 122.949C442.298 122.949 442.859 123.067 443.271 123.304C443.688 123.536 444.005 123.801 444.223 124.099C444.446 124.393 444.618 124.634 444.741 124.824H444.884V119.455H446.56V134H444.94V132.324H444.741C444.618 132.523 444.443 132.774 444.216 133.077C443.989 133.375 443.664 133.643 443.243 133.879C442.821 134.111 442.26 134.227 441.56 134.227ZM441.787 132.722C442.459 132.722 443.027 132.546 443.491 132.196C443.955 131.841 444.308 131.351 444.55 130.726C444.791 130.096 444.912 129.369 444.912 128.545C444.912 127.731 444.794 127.018 444.557 126.408C444.32 125.792 443.97 125.314 443.506 124.973C443.042 124.627 442.469 124.455 441.787 124.455C441.077 124.455 440.485 124.637 440.011 125.001C439.543 125.361 439.19 125.851 438.953 126.472C438.721 127.087 438.605 127.778 438.605 128.545C438.605 129.322 438.723 130.027 438.96 130.662C439.202 131.292 439.557 131.794 440.026 132.168C440.499 132.537 441.086 132.722 441.787 132.722ZM454.436 134.227C453.385 134.227 452.478 133.995 451.716 133.531C450.958 133.062 450.374 132.409 449.962 131.571C449.554 130.728 449.351 129.748 449.351 128.631C449.351 127.513 449.554 126.528 449.962 125.676C450.374 124.819 450.946 124.152 451.68 123.673C452.419 123.19 453.281 122.949 454.266 122.949C454.834 122.949 455.395 123.044 455.949 123.233C456.503 123.422 457.007 123.73 457.462 124.156C457.916 124.578 458.278 125.136 458.548 125.832C458.818 126.528 458.953 127.385 458.953 128.403V129.114H450.544V127.665H457.249C457.249 127.049 457.125 126.5 456.879 126.017C456.638 125.534 456.292 125.153 455.842 124.874C455.397 124.594 454.872 124.455 454.266 124.455C453.598 124.455 453.02 124.62 452.533 124.952C452.05 125.278 451.678 125.705 451.418 126.23C451.157 126.756 451.027 127.319 451.027 127.92V128.886C451.027 129.71 451.169 130.409 451.453 130.982C451.742 131.55 452.142 131.983 452.653 132.281C453.165 132.575 453.759 132.722 454.436 132.722C454.876 132.722 455.274 132.66 455.629 132.537C455.989 132.409 456.299 132.22 456.56 131.969C456.82 131.713 457.021 131.396 457.163 131.017L458.783 131.472C458.612 132.021 458.326 132.504 457.923 132.92C457.521 133.332 457.024 133.654 456.432 133.886C455.84 134.114 455.175 134.227 454.436 134.227ZM465.935 134.227C464.912 134.227 464.031 133.986 463.293 133.503C462.554 133.02 461.986 132.355 461.588 131.507C461.19 130.66 460.991 129.691 460.991 128.602C460.991 127.494 461.195 126.517 461.602 125.669C462.014 124.817 462.587 124.152 463.321 123.673C464.06 123.19 464.921 122.949 465.906 122.949C466.673 122.949 467.365 123.091 467.98 123.375C468.596 123.659 469.1 124.057 469.493 124.568C469.886 125.08 470.13 125.676 470.224 126.358H468.548C468.42 125.861 468.136 125.42 467.696 125.037C467.26 124.649 466.673 124.455 465.935 124.455C465.281 124.455 464.708 124.625 464.216 124.966C463.728 125.302 463.347 125.778 463.072 126.393C462.803 127.004 462.668 127.722 462.668 128.545C462.668 129.388 462.8 130.122 463.065 130.747C463.335 131.372 463.714 131.857 464.202 132.203C464.694 132.549 465.272 132.722 465.935 132.722C466.37 132.722 466.766 132.646 467.121 132.494C467.476 132.343 467.777 132.125 468.023 131.841C468.269 131.557 468.444 131.216 468.548 130.818H470.224C470.13 131.462 469.895 132.042 469.521 132.558C469.152 133.07 468.662 133.477 468.051 133.78C467.445 134.078 466.74 134.227 465.935 134.227ZM472.675 134V123.091H474.351V134H472.675ZM473.527 121.273C473.2 121.273 472.919 121.161 472.682 120.939C472.45 120.716 472.334 120.449 472.334 120.136C472.334 119.824 472.45 119.556 472.682 119.334C472.919 119.111 473.2 119 473.527 119C473.854 119 474.133 119.111 474.365 119.334C474.602 119.556 474.72 119.824 474.72 120.136C474.72 120.449 474.602 120.716 474.365 120.939C474.133 121.161 473.854 121.273 473.527 121.273ZM485.148 125.534L483.642 125.96C483.548 125.709 483.408 125.465 483.223 125.229C483.043 124.987 482.797 124.788 482.485 124.632C482.172 124.476 481.772 124.398 481.284 124.398C480.617 124.398 480.06 124.552 479.615 124.859C479.175 125.162 478.955 125.548 478.955 126.017C478.955 126.434 479.106 126.763 479.409 127.004C479.712 127.246 480.186 127.447 480.83 127.608L482.449 128.006C483.425 128.242 484.151 128.605 484.63 129.092C485.108 129.575 485.347 130.198 485.347 130.96C485.347 131.585 485.167 132.144 484.807 132.636C484.452 133.129 483.955 133.517 483.316 133.801C482.676 134.085 481.933 134.227 481.086 134.227C479.973 134.227 479.052 133.986 478.323 133.503C477.594 133.02 477.132 132.314 476.938 131.386L478.529 130.989C478.68 131.576 478.967 132.016 479.388 132.31C479.814 132.603 480.371 132.75 481.057 132.75C481.838 132.75 482.459 132.584 482.918 132.253C483.382 131.917 483.614 131.514 483.614 131.045C483.614 130.667 483.481 130.349 483.216 130.094C482.951 129.833 482.544 129.639 481.995 129.511L480.176 129.085C479.177 128.848 478.444 128.482 477.975 127.984C477.511 127.482 477.279 126.855 477.279 126.102C477.279 125.487 477.452 124.942 477.797 124.469C478.148 123.995 478.623 123.624 479.225 123.354C479.831 123.084 480.517 122.949 481.284 122.949C482.364 122.949 483.212 123.186 483.827 123.659C484.447 124.133 484.888 124.758 485.148 125.534ZM487.87 134V123.091H489.546V134H487.87ZM488.722 121.273C488.396 121.273 488.114 121.161 487.877 120.939C487.645 120.716 487.529 120.449 487.529 120.136C487.529 119.824 487.645 119.556 487.877 119.334C488.114 119.111 488.396 119 488.722 119C489.049 119 489.328 119.111 489.56 119.334C489.797 119.556 489.915 119.824 489.915 120.136C489.915 120.449 489.797 120.716 489.56 120.939C489.328 121.161 489.049 121.273 488.722 121.273ZM497.048 134.227C496.063 134.227 495.199 133.993 494.456 133.524C493.717 133.055 493.139 132.4 492.723 131.557C492.311 130.714 492.105 129.729 492.105 128.602C492.105 127.466 492.311 126.474 492.723 125.626C493.139 124.779 493.717 124.121 494.456 123.652C495.199 123.183 496.063 122.949 497.048 122.949C498.033 122.949 498.895 123.183 499.633 123.652C500.377 124.121 500.954 124.779 501.366 125.626C501.783 126.474 501.991 127.466 501.991 128.602C501.991 129.729 501.783 130.714 501.366 131.557C500.954 132.4 500.377 133.055 499.633 133.524C498.895 133.993 498.033 134.227 497.048 134.227ZM497.048 132.722C497.796 132.722 498.412 132.53 498.895 132.146C499.377 131.763 499.735 131.259 499.967 130.634C500.199 130.009 500.315 129.331 500.315 128.602C500.315 127.873 500.199 127.194 499.967 126.564C499.735 125.934 499.377 125.425 498.895 125.037C498.412 124.649 497.796 124.455 497.048 124.455C496.3 124.455 495.684 124.649 495.201 125.037C494.718 125.425 494.361 125.934 494.129 126.564C493.897 127.194 493.781 127.873 493.781 128.602C493.781 129.331 493.897 130.009 494.129 130.634C494.361 131.259 494.718 131.763 495.201 132.146C495.684 132.53 496.3 132.722 497.048 132.722ZM506.226 127.438V134H504.55V123.091H506.169V124.795H506.311C506.567 124.241 506.955 123.796 507.476 123.46C507.997 123.119 508.669 122.949 509.493 122.949C510.232 122.949 510.878 123.1 511.432 123.403C511.986 123.702 512.417 124.156 512.724 124.767C513.032 125.373 513.186 126.14 513.186 127.068V134H511.51V127.182C511.51 126.325 511.287 125.657 510.842 125.179C510.397 124.696 509.786 124.455 509.01 124.455C508.475 124.455 507.997 124.571 507.575 124.803C507.159 125.035 506.83 125.373 506.588 125.818C506.347 126.263 506.226 126.803 506.226 127.438ZM523.976 125.534L522.471 125.96C522.376 125.709 522.236 125.465 522.051 125.229C521.872 124.987 521.625 124.788 521.313 124.632C521 124.476 520.6 124.398 520.113 124.398C519.445 124.398 518.889 124.552 518.444 124.859C518.003 125.162 517.783 125.548 517.783 126.017C517.783 126.434 517.935 126.763 518.238 127.004C518.541 127.246 519.014 127.447 519.658 127.608L521.277 128.006C522.253 128.242 522.98 128.605 523.458 129.092C523.936 129.575 524.175 130.198 524.175 130.96C524.175 131.585 523.995 132.144 523.635 132.636C523.28 133.129 522.783 133.517 522.144 133.801C521.505 134.085 520.761 134.227 519.914 134.227C518.801 134.227 517.88 133.986 517.151 133.503C516.422 133.02 515.96 132.314 515.766 131.386L517.357 130.989C517.508 131.576 517.795 132.016 518.216 132.31C518.642 132.603 519.199 132.75 519.885 132.75C520.667 132.75 521.287 132.584 521.746 132.253C522.21 131.917 522.442 131.514 522.442 131.045C522.442 130.667 522.31 130.349 522.044 130.094C521.779 129.833 521.372 129.639 520.823 129.511L519.005 129.085C518.006 128.848 517.272 128.482 516.803 127.984C516.339 127.482 516.107 126.855 516.107 126.102C516.107 125.487 516.28 124.942 516.625 124.469C516.976 123.995 517.452 123.624 518.053 123.354C518.659 123.084 519.346 122.949 520.113 122.949C521.192 122.949 522.04 123.186 522.655 123.659C523.275 124.133 523.716 124.758 523.976 125.534Z" fill="#BDBDBD"/>
<ellipse cx="222" cy="710.5" rx="10" ry="10.5" fill="#9067C5"/>
<defs>
<filter id="filter0_d_47_2411" x="0" y="0" width="1280" height="820" filterUnits="userSpaceOnUse" color-interpolation-filters="sRGB">
<feFlood flood-opacity="0" result="BackgroundImageFix"/>
<feColorMatrix in="SourceAlpha" type="matrix" values="0 0 0 0 0 0 0 0 0 0 0 0 0 0 0 0 0 0 127 0" result="hardAlpha"/>
<feOffset dy="2"/>
<feGaussianBlur stdDeviation="5"/>
<feComposite in2="hardAlpha" operator="out"/>
<feColorMatrix type="matrix" values="0 0 0 0 0 0 0 0 0 0 0 0 0 0 0 0 0 0 0.1 0"/>
<feBlend mode="normal" in2="BackgroundImageFix" result="effect1_dropShadow_47_2411"/>
<feBlend mode="normal" in="SourceGraphic" in2="effect1_dropShadow_47_2411" result="shape"/>
</filter>
</defs>
</svg>
