<svg width="140" height="140" viewBox="0 0 140 140" fill="none" xmlns="http://www.w3.org/2000/svg">
<rect x="31" y="43" width="64.7246" height="44.6377" stroke="url(#paint0_linear_18_373)" stroke-width="4"/>
<rect x="43.2754" y="57.5072" width="64.7246" height="44.6377" fill="url(#paint1_linear_18_373)"/>
<path fill-rule="evenodd" clip-rule="evenodd" d="M85.6944 87.7421L82.8852 84.9168L87.8744 79.8989L82.8443 74.8398L85.6534 72.0145L93.4928 79.8989L85.6944 87.7421ZM65.5811 87.7422L57.7826 79.8989L65.6221 72.0145L68.4313 74.8399L63.4011 79.8989L68.3904 84.9169L65.5811 87.7422ZM71.4712 87.7438H75.4031L79.335 72.0145H75.4614L71.4712 87.7438Z" fill="#3CE1CD"/>
<circle cx="39.5" cy="51.5" r="2.5" fill="#3873FF"/>
<circle cx="46.5" cy="51.5" r="2.5" fill="#3873FF"/>
<circle cx="53.5" cy="51.5" r="2.5" fill="#3873FF"/>
<path d="M19 80V114H53" stroke="white" stroke-width="3" stroke-linecap="round" stroke-linejoin="round"/>
<path fill-rule="evenodd" clip-rule="evenodd" d="M58 119C55.2386 119 53 116.761 53 114C53 111.239 55.2386 109 58 109C60.7614 109 63 111.239 63 114C63 116.761 60.7614 119 58 119Z" stroke="white" stroke-width="3"/>
<path fill-rule="evenodd" clip-rule="evenodd" d="M19 80C16.2386 80 14 77.7614 14 75C14 72.2386 16.2386 70 19 70C21.7614 70 24 72.2386 24 75C24 77.7614 21.7614 80 19 80Z" stroke="white" stroke-width="3"/>
<path d="M121 60V26H87" stroke="white" stroke-width="3" stroke-linecap="round" stroke-linejoin="round"/>
<path fill-rule="evenodd" clip-rule="evenodd" d="M82 21C84.7614 21 87 23.2386 87 26C87 28.7614 84.7614 31 82 31C79.2386 31 77 28.7614 77 26C77 23.2386 79.2386 21 82 21Z" stroke="white" stroke-width="3"/>
<path fill-rule="evenodd" clip-rule="evenodd" d="M121 60C123.761 60 126 62.2386 126 65C126 67.7614 123.761 70 121 70C118.239 70 116 67.7614 116 65C116 62.2386 118.239 60 121 60Z" stroke="white" stroke-width="3"/>
<rect opacity="0.1" width="10.381" height="10.381" transform="matrix(0 -1 -1 0 125.524 119.381)" fill="#3CE1CD"/>
<rect opacity="0.4" width="10.381" height="10.381" transform="matrix(0 -1 -1 0 112.143 119.381)" fill="#3CE1CD"/>
<rect opacity="0.7" width="10.381" height="10.381" transform="matrix(0 -1 -1 0 98.762 119.381)" fill="#3CE1CD"/>
<rect width="10.381" height="10.381" transform="matrix(0 -1 -1 0 85.381 119.381)" fill="#3CE1CD"/>
<rect opacity="0.1" width="10.381" height="10.381" transform="matrix(0 1 1 0 14 21)" fill="#3CE1CD"/>
<rect opacity="0.4" width="10.381" height="10.381" transform="matrix(0 1 1 0 27.381 21)" fill="#3CE1CD"/>
<rect opacity="0.7" width="10.381" height="10.381" transform="matrix(0 1 1 0 40.762 21)" fill="#3CE1CD"/>
<rect width="10.381" height="10.381" transform="matrix(0 1 1 0 54.1429 21)" fill="#3CE1CD"/>
<defs>
<linearGradient id="paint0_linear_18_373" x1="63.3623" y1="43" x2="63.3623" y2="87.6377" gradientUnits="userSpaceOnUse">
<stop stop-color="#3873FF"/>
<stop offset="1" stop-color="#3873FF" stop-opacity="0"/>
</linearGradient>
<linearGradient id="paint1_linear_18_373" x1="75.6377" y1="57.5072" x2="75.6377" y2="102.145" gradientUnits="userSpaceOnUse">
<stop stop-color="#3873FF"/>
<stop offset="1" stop-color="#3873FF" stop-opacity="0"/>
</linearGradient>
</defs>
</svg>
