<svg xmlns="http://www.w3.org/2000/svg" version="1.1" xmlns:xlink="http://www.w3.org/1999/xlink" xmlns:svgjs="http://svgjs.dev/svgjs" width="1000" height="290" viewBox="0 0 1000 290"><g transform="matrix(1,0,0,1,-0.6060558561242146,0.5368653186099266)"><svg viewBox="0 0 396 115" data-background-color="#ffffff" preserveAspectRatio="xMidYMid meet" height="290" width="1000" xmlns="http://www.w3.org/2000/svg" xmlns:xlink="http://www.w3.org/1999/xlink"><g id="tight-bounds" transform="matrix(1,0,0,1,0.24000188097477348,-0.2128948677246285)"><svg viewBox="0 0 395.52 115.42578973544924" height="115.42578973544924" width="395.52"><g><svg viewBox="0 0 558.7930830113801 163.07426402026445" height="115.42578973544924" width="395.52"><g><rect width="4.542444329735887" height="163.07426402026445" x="146.83942315877533" y="0" fill="#ffffff" opacity="1" stroke-width="0" stroke="transparent" fill-opacity="1" class="rect-o-0" data-fill-palette-color="primary" rx="1%" id="o-0" data-palette-color="#ffffff"></rect></g><g transform="matrix(1,0,0,1,163.27308301138004,0.4056573731847237)"><svg viewBox="0 0 395.52 162.262949273895" height="162.262949273895" width="395.52"><g id="textblocktransform"><svg viewBox="0 0 395.52 162.262949273895" height="162.262949273895" width="395.52" id="textblock"><g><svg viewBox="0 0 395.52 162.262949273895" height="162.262949273895" width="395.52"><g transform="matrix(1,0,0,1,0,0)"><svg width="395.52" viewBox="0.7499995827674866 -39.55000305175781 321.3000183105469 127.6500015258789" height="162.262949273895" data-palette-color="#ffffff"><svg></svg><svg></svg><svg></svg><g class="wordmark-text-0" data-fill-palette-color="primary" id="text-0"><path xmlns="http://www.w3.org/2000/svg" d="M7.6 0v0c-0.7 0-1.307-0.25-1.82-0.75-0.52-0.5-0.78-1.117-0.78-1.85v0-33.85c0-0.733 0.26-1.35 0.78-1.85 0.513-0.5 1.12-0.75 1.82-0.75v0c0.733 0 1.35 0.25 1.85 0.75 0.5 0.5 0.75 1.117 0.75 1.85v0 15l16.55-16.55c0.4-0.4 0.767-0.677 1.1-0.83 0.333-0.147 0.683-0.22 1.05-0.22v0c0.833 0 1.433 0.25 1.8 0.75 0.367 0.5 0.5 1.093 0.4 1.78-0.1 0.68-0.417 1.303-0.95 1.87v0l-12.75 12.8 13 17.7c0.4 0.567 0.567 1.173 0.5 1.82-0.067 0.653-0.3 1.203-0.7 1.65-0.4 0.453-0.933 0.68-1.6 0.68v0c-0.933 0-1.65-0.367-2.15-1.1v0l-12.65-17.15-3.6 3.6v12.05c0 0.733-0.25 1.35-0.75 1.85-0.5 0.5-1.117 0.75-1.85 0.75zM40.95 0v0c-0.733 0-1.35-0.25-1.85-0.75-0.5-0.5-0.75-1.117-0.75-1.85v0-33.85c0-0.767 0.25-1.393 0.75-1.88 0.5-0.48 1.117-0.72 1.85-0.72v0c0.767 0 1.393 0.24 1.88 0.72 0.48 0.487 0.72 1.113 0.72 1.88v0 33.85c0 0.733-0.24 1.35-0.72 1.85-0.487 0.5-1.113 0.75-1.88 0.75zM56.1 0v0c-0.733 0-1.34-0.25-1.82-0.75-0.487-0.5-0.73-1.117-0.73-1.85v0-33.85c0-0.767 0.243-1.393 0.73-1.88 0.48-0.48 1.087-0.72 1.82-0.72v0c0.8 0 1.467 0.317 2 0.95v0l21.8 29v-27.35c0-0.767 0.25-1.393 0.75-1.88 0.5-0.48 1.117-0.72 1.85-0.72v0c0.767 0 1.383 0.24 1.85 0.72 0.467 0.487 0.7 1.113 0.7 1.88v0 33.85c0 0.733-0.233 1.35-0.7 1.85-0.467 0.5-1.083 0.75-1.85 0.75v0c-0.333 0-0.69-0.077-1.07-0.23-0.387-0.147-0.697-0.37-0.93-0.67v0l-21.8-29v27.3c0 0.733-0.24 1.35-0.72 1.85-0.487 0.5-1.113 0.75-1.88 0.75zM112.55 0.5v0c-2.7 0-5.223-0.51-7.57-1.53-2.353-1.013-4.403-2.43-6.15-4.25-1.753-1.813-3.12-3.937-4.1-6.37-0.987-2.433-1.48-5.067-1.48-7.9v0c0-2.8 0.493-5.41 1.48-7.83 0.98-2.413 2.347-4.53 4.1-6.35 1.747-1.813 3.787-3.237 6.12-4.27 2.333-1.033 4.867-1.55 7.6-1.55v0c2.567 0 4.777 0.333 6.63 1 1.847 0.667 3.703 1.767 5.57 3.3v0c0.267 0.2 0.477 0.407 0.63 0.62 0.147 0.22 0.247 0.437 0.3 0.65 0.047 0.22 0.07 0.48 0.07 0.78v0c0 0.633-0.223 1.167-0.67 1.6-0.453 0.433-1.003 0.667-1.65 0.7-0.653 0.033-1.263-0.183-1.83-0.65v0c-1.233-1.067-2.507-1.883-3.82-2.45-1.32-0.567-3.063-0.85-5.23-0.85v0c-1.967 0-3.817 0.4-5.55 1.2-1.733 0.8-3.257 1.9-4.57 3.3-1.32 1.4-2.347 3.023-3.08 4.87-0.733 1.853-1.1 3.83-1.1 5.93v0c0 2.133 0.367 4.123 1.1 5.97 0.733 1.853 1.76 3.48 3.08 4.88 1.313 1.4 2.837 2.49 4.57 3.27 1.733 0.787 3.583 1.18 5.55 1.18v0c1.7 0 3.31-0.293 4.83-0.88 1.513-0.58 2.97-1.387 4.37-2.42v0c0.6-0.433 1.193-0.627 1.78-0.58 0.58 0.053 1.07 0.287 1.47 0.7 0.4 0.42 0.6 0.997 0.6 1.73v0c0 0.333-0.057 0.657-0.17 0.97-0.12 0.32-0.33 0.613-0.63 0.88v0c-1.767 1.467-3.683 2.557-5.75 3.27-2.067 0.72-4.233 1.08-6.5 1.08zM125.6-17.65v11.95l-5-1v-8.95h-6.9c-0.733 0-1.35-0.217-1.85-0.65-0.5-0.433-0.75-0.983-0.75-1.65v0c0-0.667 0.25-1.217 0.75-1.65 0.5-0.433 1.117-0.65 1.85-0.65v0h9.35c0.767 0 1.383 0.24 1.85 0.72 0.467 0.487 0.7 1.113 0.7 1.88zM146.3 0.5v0c-2.133 0-4.167-0.333-6.1-1-1.933-0.667-3.617-1.6-5.05-2.8-1.433-1.2-2.483-2.583-3.15-4.15v0c-0.333-0.7-0.323-1.35 0.03-1.95 0.347-0.6 0.937-0.983 1.77-1.15v0c0.6-0.133 1.193-0.043 1.78 0.27 0.58 0.32 1.02 0.797 1.32 1.43v0c0.4 0.833 1.06 1.6 1.98 2.3 0.913 0.7 2.02 1.267 3.32 1.7 1.3 0.433 2.667 0.65 4.1 0.65v0c1.6 0 3.077-0.25 4.43-0.75 1.347-0.5 2.437-1.227 3.27-2.18 0.833-0.947 1.25-2.12 1.25-3.52v0c0-1.767-0.69-3.35-2.07-4.75-1.387-1.4-3.663-2.267-6.83-2.6v0c-4.133-0.4-7.383-1.617-9.75-3.65-2.367-2.033-3.55-4.55-3.55-7.55v0c0-2.2 0.617-4.067 1.85-5.6 1.233-1.533 2.91-2.7 5.03-3.5 2.113-0.8 4.47-1.2 7.07-1.2v0c2.033 0 3.81 0.283 5.33 0.85 1.513 0.567 2.837 1.35 3.97 2.35 1.133 1 2.117 2.183 2.95 3.55v0c0.467 0.733 0.66 1.423 0.58 2.07-0.087 0.653-0.413 1.163-0.98 1.53v0c-0.633 0.4-1.317 0.483-2.05 0.25-0.733-0.233-1.283-0.667-1.65-1.3v0c-0.533-0.967-1.183-1.783-1.95-2.45-0.767-0.667-1.667-1.193-2.7-1.58-1.033-0.38-2.25-0.57-3.65-0.57v0c-2.467-0.033-4.533 0.423-6.2 1.37-1.667 0.953-2.5 2.413-2.5 4.38v0c0 1 0.26 1.957 0.78 2.87 0.513 0.92 1.463 1.713 2.85 2.38 1.38 0.667 3.37 1.133 5.97 1.4v0c3.967 0.4 7.06 1.607 9.28 3.62 2.213 2.02 3.32 4.68 3.32 7.98v0c0 1.9-0.39 3.55-1.17 4.95-0.787 1.4-1.837 2.573-3.15 3.52-1.32 0.953-2.82 1.663-4.5 2.13-1.687 0.467-3.43 0.7-5.23 0.7zM186.35 0.5v0c-2.933 0-5.617-0.493-8.05-1.48-2.433-0.98-4.523-2.363-6.27-4.15-1.753-1.78-3.113-3.897-4.08-6.35-0.967-2.447-1.45-5.137-1.45-8.07v0c0-2.933 0.483-5.617 1.45-8.05 0.967-2.433 2.327-4.543 4.08-6.33 1.747-1.78 3.837-3.163 6.27-4.15 2.433-0.98 5.117-1.47 8.05-1.47v0c2.933 0 5.61 0.49 8.03 1.47 2.413 0.987 4.503 2.37 6.27 4.15 1.767 1.787 3.133 3.897 4.1 6.33 0.967 2.433 1.45 5.117 1.45 8.05v0c0 2.933-0.483 5.623-1.45 8.07-0.967 2.453-2.333 4.57-4.1 6.35-1.767 1.787-3.857 3.17-6.27 4.15-2.42 0.987-5.097 1.48-8.03 1.48zM186.35-4.2v0c2.167 0 4.16-0.393 5.98-1.18 1.813-0.78 3.387-1.863 4.72-3.25 1.333-1.38 2.36-3.003 3.08-4.87 0.713-1.867 1.07-3.883 1.07-6.05v0c0-2.167-0.357-4.183-1.07-6.05-0.72-1.867-1.747-3.493-3.08-4.88-1.333-1.38-2.907-2.453-4.72-3.22-1.82-0.767-3.813-1.15-5.98-1.15v0c-2.167 0-4.157 0.383-5.97 1.15-1.82 0.767-3.387 1.84-4.7 3.22-1.32 1.387-2.347 3.013-3.08 4.88-0.733 1.867-1.1 3.883-1.1 6.05v0c0 2.167 0.367 4.183 1.1 6.05 0.733 1.867 1.76 3.49 3.08 4.87 1.313 1.387 2.88 2.47 4.7 3.25 1.813 0.787 3.803 1.18 5.97 1.18zM216.9 0v0c-0.733 0-1.34-0.25-1.82-0.75-0.487-0.5-0.73-1.117-0.73-1.85v0-33.85c0-0.767 0.243-1.393 0.73-1.88 0.48-0.48 1.087-0.72 1.82-0.72v0c0.8 0 1.467 0.317 2 0.95v0l21.8 29v-27.35c0-0.767 0.25-1.393 0.75-1.88 0.5-0.48 1.117-0.72 1.85-0.72v0c0.767 0 1.383 0.24 1.85 0.72 0.467 0.487 0.7 1.113 0.7 1.88v0 33.85c0 0.733-0.233 1.35-0.7 1.85-0.467 0.5-1.083 0.75-1.85 0.75v0c-0.333 0-0.69-0.077-1.07-0.23-0.387-0.147-0.697-0.37-0.93-0.67v0l-21.8-29v27.3c0 0.733-0.24 1.35-0.72 1.85-0.487 0.5-1.113 0.75-1.88 0.75z" fill="#ffffff" fill-rule="nonzero" stroke="none" stroke-width="1" stroke-linecap="butt" stroke-linejoin="miter" stroke-miterlimit="10" stroke-dasharray="" stroke-dashoffset="0" font-family="none" font-weight="none" font-size="none" text-anchor="none" style="mix-blend-mode: normal" data-fill-palette-color="primary" opacity="1"></path><path xmlns="http://www.w3.org/2000/svg" d="M16.55 43.65v0c-0.733 0-1.35-0.25-1.85-0.75-0.5-0.5-0.75-1.117-0.75-1.85v0-36.45h5.2v36.45c0 0.733-0.25 1.35-0.75 1.85-0.5 0.5-1.117 0.75-1.85 0.75zM29.9 9.4h-26.75c-0.7 0-1.273-0.227-1.72-0.68-0.453-0.447-0.68-1.02-0.68-1.72v0c0-0.7 0.227-1.277 0.68-1.73 0.447-0.447 1.02-0.67 1.72-0.67v0h26.75c0.7 0 1.277 0.223 1.73 0.67 0.447 0.453 0.67 1.03 0.67 1.73v0c0 0.7-0.223 1.273-0.67 1.72-0.453 0.453-1.03 0.68-1.73 0.68zM63.25 43.65h-22.6c-0.733 0-1.35-0.25-1.85-0.75-0.5-0.5-0.75-1.117-0.75-1.85v0-33.85c0-0.767 0.25-1.393 0.75-1.88 0.5-0.48 1.117-0.72 1.85-0.72v0h22.6c0.767 0 1.383 0.223 1.85 0.67 0.467 0.453 0.7 1.047 0.7 1.78v0c0 0.7-0.233 1.267-0.7 1.7-0.467 0.433-1.083 0.65-1.85 0.65v0h-20v12.15h14.35c0.767 0 1.383 0.223 1.85 0.67 0.467 0.453 0.7 1.03 0.7 1.73v0c0 0.7-0.233 1.273-0.7 1.72-0.467 0.453-1.083 0.68-1.85 0.68v0h-14.35v12.5h20c0.767 0 1.383 0.217 1.85 0.65 0.467 0.433 0.7 1 0.7 1.7v0c0 0.733-0.233 1.323-0.7 1.77-0.467 0.453-1.083 0.68-1.85 0.68zM90.55 44.15v0c-2.7 0-5.223-0.51-7.57-1.53-2.353-1.013-4.403-2.43-6.15-4.25-1.753-1.813-3.12-3.937-4.1-6.37-0.987-2.433-1.48-5.067-1.48-7.9v0c0-2.8 0.493-5.41 1.48-7.83 0.98-2.413 2.347-4.53 4.1-6.35 1.747-1.813 3.787-3.237 6.12-4.27 2.333-1.033 4.867-1.55 7.6-1.55v0c2.567 0 4.777 0.333 6.63 1 1.847 0.667 3.703 1.767 5.57 3.3v0c0.267 0.2 0.477 0.407 0.63 0.62 0.147 0.22 0.247 0.437 0.3 0.65 0.047 0.22 0.07 0.48 0.07 0.78v0c0 0.633-0.223 1.157-0.67 1.57-0.453 0.42-0.997 0.653-1.63 0.7-0.633 0.053-1.25-0.153-1.85-0.62v0c-1.233-1.067-2.507-1.883-3.82-2.45-1.32-0.567-3.063-0.85-5.23-0.85v0c-1.967 0-3.817 0.4-5.55 1.2-1.733 0.8-3.257 1.9-4.57 3.3-1.32 1.4-2.347 3.023-3.08 4.87-0.733 1.853-1.1 3.83-1.1 5.93v0c0 2.133 0.367 4.123 1.1 5.97 0.733 1.853 1.76 3.48 3.08 4.88 1.313 1.4 2.837 2.49 4.57 3.27 1.733 0.787 3.583 1.18 5.55 1.18v0c1.7 0 3.31-0.293 4.83-0.88 1.513-0.58 2.97-1.387 4.37-2.42v0c0.6-0.433 1.193-0.627 1.78-0.58 0.58 0.053 1.07 0.287 1.47 0.7 0.4 0.42 0.6 0.997 0.6 1.73v0c0 0.333-0.067 0.657-0.2 0.97-0.133 0.32-0.333 0.613-0.6 0.88v0c-1.8 1.433-3.723 2.517-5.77 3.25-2.053 0.733-4.213 1.1-6.48 1.1zM114.5 43.65v0c-0.733 0-1.35-0.25-1.85-0.75-0.5-0.5-0.75-1.117-0.75-1.85v0-33.85c0-0.767 0.25-1.393 0.75-1.88 0.5-0.48 1.117-0.72 1.85-0.72v0c0.767 0 1.393 0.24 1.88 0.72 0.48 0.487 0.72 1.113 0.72 1.88v0 14.35h23.2v-14.35c0-0.767 0.25-1.393 0.75-1.88 0.5-0.48 1.117-0.72 1.85-0.72v0c0.767 0 1.383 0.24 1.85 0.72 0.467 0.487 0.7 1.113 0.7 1.88v0 33.85c0 0.733-0.233 1.35-0.7 1.85-0.467 0.5-1.083 0.75-1.85 0.75v0c-0.733 0-1.35-0.25-1.85-0.75-0.5-0.5-0.75-1.117-0.75-1.85v0-14.9h-23.2v14.9c0 0.733-0.24 1.35-0.72 1.85-0.487 0.5-1.113 0.75-1.88 0.75zM177.95 44.35v0c-2.1 0-3.95-0.393-5.55-1.18-1.6-0.78-2.84-1.897-3.72-3.35-0.887-1.447-1.33-3.187-1.33-5.22v0c0-2.267 0.767-4.317 2.3-6.15 1.533-1.833 3.55-3.75 6.05-5.75v0l4.15-3.3c1.767-1.4 2.9-2.633 3.4-3.7 0.5-1.067 0.767-2.167 0.8-3.3v0c0-1.267-0.423-2.367-1.27-3.3-0.853-0.933-2.08-1.4-3.68-1.4v0c-1.467 0-2.65 0.433-3.55 1.3-0.9 0.867-1.35 1.883-1.35 3.05v0c0 0.867 0.193 1.717 0.58 2.55 0.38 0.833 1.003 1.683 1.87 2.55v0l22.75 22.7c0.533 0.533 0.833 1.033 0.9 1.5 0.067 0.467-0.167 0.967-0.7 1.5v0c-1.067 1.067-2.133 1.067-3.2 0v0l-23-22.95c-1.133-1.167-2-2.393-2.6-3.68-0.6-1.28-0.9-2.637-0.9-4.07v0c0-1.6 0.4-3.043 1.2-4.33 0.8-1.28 1.9-2.287 3.3-3.02 1.4-0.733 2.967-1.1 4.7-1.1v0c1.8 0 3.393 0.383 4.78 1.15 1.38 0.767 2.47 1.817 3.27 3.15 0.8 1.333 1.2 2.833 1.2 4.5v0c0 1.3-0.223 2.483-0.67 3.55-0.453 1.067-1.147 2.107-2.08 3.12-0.933 1.02-2.15 2.13-3.65 3.33v0l-3.95 3.15c-1.133 0.9-2.15 1.817-3.05 2.75-0.9 0.933-1.607 1.89-2.12 2.87-0.52 0.987-0.78 2.03-0.78 3.13v0c0 1.867 0.517 3.273 1.55 4.22 1.033 0.953 2.483 1.43 4.35 1.43v0c2 0 3.743-0.46 5.23-1.38 1.48-0.913 2.987-2.17 4.52-3.77v0l7.3-7.7c0.5-0.533 0.967-0.867 1.4-1 0.433-0.133 0.917 0.05 1.45 0.55v0c0.533 0.5 0.81 1.017 0.83 1.55 0.013 0.533-0.23 1.083-0.73 1.65v0l-7.3 7.7c-1.733 1.967-3.617 3.573-5.65 4.82-2.033 1.253-4.383 1.88-7.05 1.88z" fill="#ffffff" fill-rule="nonzero" stroke="none" stroke-width="1" stroke-linecap="butt" stroke-linejoin="miter" stroke-miterlimit="10" stroke-dasharray="" stroke-dashoffset="0" font-family="none" font-weight="none" font-size="none" text-anchor="none" style="mix-blend-mode: normal" data-fill-palette-color="primary" opacity="1"></path><path xmlns="http://www.w3.org/2000/svg" d="M17.4 87.8v0c-2.133 0-4.167-0.333-6.1-1-1.933-0.667-3.617-1.6-5.05-2.8-1.433-1.2-2.483-2.583-3.15-4.15v0c-0.333-0.7-0.323-1.35 0.03-1.95 0.347-0.6 0.937-0.983 1.77-1.15v0c0.6-0.133 1.193-0.043 1.78 0.27 0.58 0.32 1.02 0.797 1.32 1.43v0c0.4 0.833 1.06 1.6 1.98 2.3 0.913 0.7 2.02 1.267 3.32 1.7 1.3 0.433 2.667 0.65 4.1 0.65v0c1.6 0 3.077-0.25 4.43-0.75 1.347-0.5 2.437-1.227 3.27-2.18 0.833-0.947 1.25-2.12 1.25-3.52v0c0-1.767-0.69-3.35-2.07-4.75-1.387-1.4-3.663-2.267-6.83-2.6v0c-4.133-0.4-7.383-1.617-9.75-3.65-2.367-2.033-3.55-4.55-3.55-7.55v0c0-2.2 0.617-4.067 1.85-5.6 1.233-1.533 2.91-2.7 5.03-3.5 2.113-0.8 4.47-1.2 7.07-1.2v0c2.033 0 3.81 0.283 5.33 0.85 1.513 0.567 2.837 1.35 3.97 2.35 1.133 1 2.117 2.183 2.95 3.55v0c0.467 0.733 0.66 1.423 0.58 2.07-0.087 0.653-0.413 1.163-0.98 1.53v0c-0.633 0.4-1.317 0.483-2.05 0.25-0.733-0.233-1.283-0.667-1.65-1.3v0c-0.533-0.967-1.183-1.783-1.95-2.45-0.767-0.667-1.667-1.193-2.7-1.58-1.033-0.38-2.25-0.57-3.65-0.57v0c-2.467-0.033-4.533 0.423-6.2 1.37-1.667 0.953-2.5 2.413-2.5 4.38v0c0 1 0.26 1.957 0.78 2.87 0.513 0.92 1.463 1.713 2.85 2.38 1.38 0.667 3.37 1.133 5.97 1.4v0c3.967 0.4 7.06 1.607 9.28 3.62 2.213 2.02 3.32 4.68 3.32 7.98v0c0 1.9-0.39 3.55-1.17 4.95-0.787 1.4-1.837 2.573-3.15 3.52-1.32 0.953-2.82 1.663-4.5 2.13-1.687 0.467-3.43 0.7-5.23 0.7zM57.45 87.8v0c-2.933 0-5.617-0.493-8.05-1.48-2.433-0.98-4.523-2.363-6.27-4.15-1.753-1.78-3.113-3.897-4.08-6.35-0.967-2.447-1.45-5.137-1.45-8.07v0c0-2.933 0.483-5.617 1.45-8.05 0.967-2.433 2.327-4.543 4.08-6.33 1.747-1.78 3.837-3.163 6.27-4.15 2.433-0.98 5.117-1.47 8.05-1.47v0c2.933 0 5.607 0.49 8.02 1.47 2.42 0.987 4.513 2.37 6.28 4.15 1.767 1.787 3.133 3.897 4.1 6.33 0.967 2.433 1.45 5.117 1.45 8.05v0c0 2.933-0.483 5.623-1.45 8.07-0.967 2.453-2.333 4.57-4.1 6.35-1.767 1.787-3.86 3.17-6.28 4.15-2.413 0.987-5.087 1.48-8.02 1.48zM57.45 83.1v0c2.167 0 4.157-0.393 5.97-1.18 1.82-0.78 3.397-1.863 4.73-3.25 1.333-1.38 2.357-3.003 3.07-4.87 0.72-1.867 1.08-3.883 1.08-6.05v0c0-2.167-0.36-4.183-1.08-6.05-0.713-1.867-1.737-3.493-3.07-4.88-1.333-1.38-2.91-2.453-4.73-3.22-1.813-0.767-3.803-1.15-5.97-1.15v0c-2.167 0-4.16 0.383-5.98 1.15-1.813 0.767-3.38 1.84-4.7 3.22-1.313 1.387-2.337 3.013-3.07 4.88-0.733 1.867-1.1 3.883-1.1 6.05v0c0 2.167 0.367 4.183 1.1 6.05 0.733 1.867 1.757 3.49 3.07 4.87 1.32 1.387 2.887 2.47 4.7 3.25 1.82 0.787 3.813 1.18 5.98 1.18zM108.7 87.3h-20.7c-0.733 0-1.343-0.25-1.83-0.75-0.48-0.5-0.72-1.117-0.72-1.85v0-33.85c0-0.733 0.25-1.35 0.75-1.85 0.5-0.5 1.1-0.75 1.8-0.75v0c0.733 0 1.35 0.25 1.85 0.75 0.5 0.5 0.75 1.117 0.75 1.85v0 31.25h18.1c0.733 0 1.35 0.25 1.85 0.75 0.5 0.5 0.75 1.117 0.75 1.85v0c0 0.733-0.25 1.35-0.75 1.85-0.5 0.5-1.117 0.75-1.85 0.75zM133.9 88.1v0c-3.2 0-6.033-0.593-8.5-1.78-2.467-1.18-4.39-2.82-5.77-4.92-1.387-2.1-2.08-4.5-2.08-7.2v0-23.35c0-0.767 0.25-1.393 0.75-1.88 0.5-0.48 1.117-0.72 1.85-0.72v0c0.767 0 1.393 0.24 1.88 0.72 0.48 0.487 0.72 1.113 0.72 1.88v0 23.35c0 1.8 0.477 3.39 1.43 4.77 0.947 1.387 2.263 2.47 3.95 3.25 1.68 0.787 3.603 1.18 5.77 1.18v0c2.1 0 3.96-0.393 5.58-1.18 1.613-0.78 2.88-1.863 3.8-3.25 0.913-1.38 1.37-2.97 1.37-4.77v0-23.35c0-0.767 0.25-1.393 0.75-1.88 0.5-0.48 1.117-0.72 1.85-0.72v0c0.767 0 1.383 0.24 1.85 0.72 0.467 0.487 0.7 1.113 0.7 1.88v0 23.35c0 2.7-0.673 5.1-2.02 7.2-1.353 2.1-3.23 3.74-5.63 4.92-2.4 1.187-5.15 1.78-8.25 1.78zM171.35 87.3v0c-0.733 0-1.35-0.25-1.85-0.75-0.5-0.5-0.75-1.117-0.75-1.85v0-36.45h5.2v36.45c0 0.733-0.25 1.35-0.75 1.85-0.5 0.5-1.117 0.75-1.85 0.75zM184.7 53.05h-26.75c-0.7 0-1.273-0.227-1.72-0.68-0.453-0.447-0.68-1.02-0.68-1.72v0c0-0.7 0.227-1.277 0.68-1.73 0.447-0.447 1.02-0.67 1.72-0.67v0h26.75c0.7 0 1.277 0.223 1.73 0.67 0.447 0.453 0.67 1.03 0.67 1.73v0c0 0.7-0.223 1.273-0.67 1.72-0.453 0.453-1.03 0.68-1.73 0.68zM195.45 87.3v0c-0.733 0-1.35-0.25-1.85-0.75-0.5-0.5-0.75-1.117-0.75-1.85v0-33.85c0-0.767 0.25-1.393 0.75-1.88 0.5-0.48 1.117-0.72 1.85-0.72v0c0.767 0 1.393 0.24 1.88 0.72 0.48 0.487 0.72 1.113 0.72 1.88v0 33.85c0 0.733-0.24 1.35-0.72 1.85-0.487 0.5-1.113 0.75-1.88 0.75zM226.1 87.8v0c-2.933 0-5.617-0.493-8.05-1.48-2.433-0.98-4.523-2.363-6.27-4.15-1.753-1.78-3.113-3.897-4.08-6.35-0.967-2.447-1.45-5.137-1.45-8.07v0c0-2.933 0.483-5.617 1.45-8.05 0.967-2.433 2.327-4.543 4.08-6.33 1.747-1.78 3.837-3.163 6.27-4.15 2.433-0.98 5.117-1.47 8.05-1.47v0c2.933 0 5.61 0.49 8.03 1.47 2.413 0.987 4.503 2.37 6.27 4.15 1.767 1.787 3.133 3.897 4.1 6.33 0.967 2.433 1.45 5.117 1.45 8.05v0c0 2.933-0.483 5.623-1.45 8.07-0.967 2.453-2.333 4.57-4.1 6.35-1.767 1.787-3.857 3.17-6.27 4.15-2.42 0.987-5.097 1.48-8.03 1.48zM226.1 83.1v0c2.167 0 4.16-0.393 5.98-1.18 1.813-0.78 3.387-1.863 4.72-3.25 1.333-1.38 2.36-3.003 3.08-4.87 0.713-1.867 1.07-3.883 1.07-6.05v0c0-2.167-0.357-4.183-1.07-6.05-0.72-1.867-1.747-3.493-3.08-4.88-1.333-1.38-2.907-2.453-4.72-3.22-1.82-0.767-3.813-1.15-5.98-1.15v0c-2.167 0-4.157 0.383-5.97 1.15-1.82 0.767-3.387 1.84-4.7 3.22-1.32 1.387-2.347 3.013-3.08 4.88-0.733 1.867-1.1 3.883-1.1 6.05v0c0 2.167 0.367 4.183 1.1 6.05 0.733 1.867 1.76 3.49 3.08 4.87 1.313 1.387 2.88 2.47 4.7 3.25 1.813 0.787 3.803 1.18 5.97 1.18zM256.65 87.3v0c-0.733 0-1.34-0.25-1.82-0.75-0.487-0.5-0.73-1.117-0.73-1.85v0-33.85c0-0.767 0.243-1.393 0.73-1.88 0.48-0.48 1.087-0.72 1.82-0.72v0c0.8 0 1.467 0.317 2 0.95v0l21.8 29v-27.35c0-0.767 0.25-1.393 0.75-1.88 0.5-0.48 1.117-0.72 1.85-0.72v0c0.767 0 1.383 0.24 1.85 0.72 0.467 0.487 0.7 1.113 0.7 1.88v0 33.85c0 0.733-0.233 1.35-0.7 1.85-0.467 0.5-1.083 0.75-1.85 0.75v0c-0.333 0-0.69-0.077-1.07-0.23-0.387-0.147-0.697-0.37-0.93-0.67v0l-21.8-29v27.3c0 0.733-0.24 1.35-0.72 1.85-0.487 0.5-1.113 0.75-1.88 0.75zM308 87.8v0c-2.133 0-4.167-0.333-6.1-1-1.933-0.667-3.617-1.6-5.05-2.8-1.433-1.2-2.483-2.583-3.15-4.15v0c-0.333-0.7-0.323-1.35 0.03-1.95 0.347-0.6 0.937-0.983 1.77-1.15v0c0.6-0.133 1.193-0.043 1.78 0.27 0.58 0.32 1.02 0.797 1.32 1.43v0c0.4 0.833 1.06 1.6 1.98 2.3 0.913 0.7 2.02 1.267 3.32 1.7 1.3 0.433 2.667 0.65 4.1 0.65v0c1.6 0 3.077-0.25 4.43-0.75 1.347-0.5 2.437-1.227 3.27-2.18 0.833-0.947 1.25-2.12 1.25-3.52v0c0-1.767-0.69-3.35-2.07-4.75-1.387-1.4-3.663-2.267-6.83-2.6v0c-4.133-0.4-7.383-1.617-9.75-3.65-2.367-2.033-3.55-4.55-3.55-7.55v0c0-2.2 0.617-4.067 1.85-5.6 1.233-1.533 2.91-2.7 5.03-3.5 2.113-0.8 4.47-1.2 7.07-1.2v0c2.033 0 3.81 0.283 5.33 0.85 1.513 0.567 2.837 1.35 3.97 2.35 1.133 1 2.117 2.183 2.95 3.55v0c0.467 0.733 0.66 1.423 0.58 2.07-0.087 0.653-0.413 1.163-0.98 1.53v0c-0.633 0.4-1.317 0.483-2.05 0.25-0.733-0.233-1.283-0.667-1.65-1.3v0c-0.533-0.967-1.183-1.783-1.95-2.45-0.767-0.667-1.667-1.193-2.7-1.58-1.033-0.38-2.25-0.57-3.65-0.57v0c-2.467-0.033-4.533 0.423-6.2 1.37-1.667 0.953-2.5 2.413-2.5 4.38v0c0 1 0.26 1.957 0.78 2.87 0.513 0.92 1.463 1.713 2.85 2.38 1.38 0.667 3.37 1.133 5.97 1.4v0c3.967 0.4 7.06 1.607 9.28 3.62 2.213 2.02 3.32 4.68 3.32 7.98v0c0 1.9-0.39 3.55-1.17 4.95-0.787 1.4-1.837 2.573-3.15 3.52-1.32 0.953-2.82 1.663-4.5 2.13-1.687 0.467-3.43 0.7-5.23 0.7z" fill="#ffffff" fill-rule="nonzero" stroke="none" stroke-width="1" stroke-linecap="butt" stroke-linejoin="miter" stroke-miterlimit="10" stroke-dasharray="" stroke-dashoffset="0" font-family="none" font-weight="none" font-size="none" text-anchor="none" style="mix-blend-mode: normal" data-fill-palette-color="primary" opacity="1"></path></g></svg></g></svg></g></svg></g></svg></g><g transform="matrix(1,0,0,1,0,0.4056573731847237)"><svg viewBox="0 0 134.94820763590653 162.262949273895" height="162.262949273895" width="134.94820763590653"><g><svg xmlns="http://www.w3.org/2000/svg" xmlns:xlink="http://www.w3.org/1999/xlink" version="1.1" x="0" y="0" viewBox="9.640003204345703 1 81.36000061035156 97.8280029296875" enable-background="new 0 0 100 100" xml:space="preserve" height="162.262949273895" width="134.94820763590653" class="icon-icon-0" data-fill-palette-color="accent" id="icon-0"><g fill="#ffffff" data-fill-palette-color="accent"><g fill="#ffffff" data-fill-palette-color="accent"><path fill="#ffffff" d="M71.15 55.636c8.644-9.455 13.473-18.541 16.13-26.462 0 0.024 0 0.024 0.008 0.04 0 0 1.069-2.789 1.908-7.179 0.062-0.292 0.104-0.559 0.159-0.854 0.063-0.368 0.128-0.747 0.184-1.133 1.029-6.393 0.687-11.445 0.239-14.422 0.143-0.135 0.295-0.303 0.438-0.495 0.527-0.663 0.752-1.349 0.52-1.532l-0.28-0.212L91 1l-2.587 0.818L88.07 1.562c-0.239-0.175-0.846 0.224-1.364 0.886-0.104 0.143-0.2 0.28-0.28 0.415 0 0-9.473 0.295-20.432 7.255h0.017c-15.324 9.45-22.571 24.31-22.571 24.31-27.639-3.71-33.8 22.021-33.8 22.021 53.873-3.16 46.729 37.543 46.729 37.543C79.945 83.649 71.15 55.636 71.15 55.636zM69.371 41.524c-2.443 2.69-6.561 3.396-9.889 1.477-3.815-2.195-5.148-6.991-2.978-10.71 0.264-0.463 0.575-0.874 0.918-1.253 2.434-2.69 6.552-3.393 9.888-1.477 3.808 2.187 5.149 6.987 2.979 10.711C70.017 40.734 69.705 41.149 69.371 41.524z" data-fill-palette-color="accent"></path><path fill="#ffffff" d="M30.949 97.333c13.296-4.829 18.133-22.384 18.133-22.384C34.956 81.278 30.949 97.333 30.949 97.333z" data-fill-palette-color="accent"></path><path fill="#ffffff" d="M16.806 98.828c17.623-6.504 23.952-30.4 23.952-30.4C22.051 76.96 16.806 98.828 16.806 98.828z" data-fill-palette-color="accent"></path><path fill="#ffffff" d="M14.292 84.28c13.297-4.821 18.134-22.372 18.134-22.372C18.307 68.226 14.292 84.28 14.292 84.28z" data-fill-palette-color="accent"></path></g></g></svg></g></svg></g></svg></g><defs></defs></svg><rect width="395.52" height="115.42578973544924" fill="none" stroke="none" visibility="hidden"></rect></g></svg></g></svg>